<?xml version="1.0" encoding="utf-8" standalone="no"?><svg xmlns="http://www.w3.org/2000/svg" xmlns:xlink="http://www.w3.org/1999/xlink" width="59.182mm" height="41.148mm" viewBox="4038 3397 233 162"><title>Photo View</title><rect x="4038" y="3397" width="233" height="162" fill="#000000" stroke="none"/><defs xmlns="http://www.w3.org/2000/svg" id="patterns"><pattern id="gridPattern" x="4000" y="3000" width="10" height="10" patternUnits="userSpaceOnUse"><rect id="gridCell" x="0" y="0" width="0.50001" height="0.50001" fill="#FFFFFF" stroke="none" fill-opacity="0.8"/></pattern><pattern id="gridPattern2" x="4000.50001" y="3000.50001" width="10" height="10" patternUnits="userSpaceOnUse"><path id="gridCell2" d="M10 0V10H-10" fill="none" stroke="#FFFFFF" stroke-width="0.50001" stroke-opacity="0.6"/></pattern><marker id="arrowOnStart" orient="auto" refY="0" refX="0" style="overflow:visible" markerUnits="strokeWidth"><path d="M 2,0 l 4,-2, 0,4 z" stroke-width="6"/></marker><marker id="arrowOnEnd" orient="auto" refY="0" refX="0" style="overflow:visible" markerUnits="strokeWidth"><path d="M -2,0 l -4,-2, 0,4 z" stroke-width="6"/></marker><marker id="arrowOnStartChrome" orient="auto" refY="0" refX="0" style="overflow:visible" markerUnits="strokeWidth"><path d="M 2,0 l 4,-2, 0,4 z" stroke-width="3" stroke="#FFFFFF"/></marker><marker id="arrowOnEndChrome" orient="auto" refY="0" refX="0" style="overflow:visible" markerUnits="strokeWidth"><path d="M -2,0 l -4,-2, 0,4 z" stroke-width="3" stroke="#FFFFFF"/></marker><svg id="icon-lock" title="Unlock" viewBox="0 0 20 20" height="20" width="20"><path stroke="#F0F" stroke-width="2" style="cursor:pointer;fill-opacity:.001;fill:#fff" d="M 5 7 C 5 -1 15 -1 15 7L1 7 1 19 19 19 19 7 15 7"/></svg><mask id="topBoardSolderMask" maskUnits="userSpaceOnUse" x="4048" y="3407" width="213" height="142"><path d="M4048 3549,4048 3407,4261 3407,4261 3549z" stroke="none" fill="white"/><g fill="black"><polygon points="4215.74 3429.16 4215.74 3423.64 4221.26 3423.64 4221.26 3429.16" stroke-width="0" c_etype="pad_outer"/><polygon points="4215.74 3437.36 4215.74 3431.84 4221.26 3431.84 4221.26 3437.36" stroke-width="0" c_etype="pad_outer"/><polygon points="4185.74 3489.16 4185.74 3483.64 4191.26 3483.64 4191.26 3489.16" stroke-width="0" c_etype="pad_outer"/><polygon points="4185.74 3497.36 4185.74 3491.84 4191.26 3491.84 4191.26 3497.36" stroke-width="0" c_etype="pad_outer"/></g></mask><mask id="topSignalSolderMask" maskUnits="userSpaceOnUse" x="4048" y="3407" width="213" height="142"><path d="M4048 3549,4048 3407,4261 3407,4261 3549z" stroke="none" fill="white"/><g fill="black"><polygon points="4215.74 3429.16 4215.74 3423.64 4221.26 3423.64 4221.26 3429.16" stroke-width="0" c_etype="pad_outer"/><polygon points="4215.74 3437.36 4215.74 3431.84 4221.26 3431.84 4221.26 3437.36" stroke-width="0" c_etype="pad_outer"/><polygon points="4185.74 3489.16 4185.74 3483.64 4191.26 3483.64 4191.26 3489.16" stroke-width="0" c_etype="pad_outer"/><polygon points="4185.74 3497.36 4185.74 3491.84 4191.26 3491.84 4191.26 3497.36" stroke-width="0" c_etype="pad_outer"/></g></mask><mask id="bottomBoardSolderMask" maskUnits="userSpaceOnUse" x="4048" y="3407" width="213" height="142"><path d="M4048 3549,4048 3407,4261 3407,4261 3549z" stroke="none" fill="white"/></mask><mask id="bottomSignalSolderMask" maskUnits="userSpaceOnUse" x="4048" y="3407" width="213" height="142"><path d="M4048 3549,4048 3407,4261 3407,4261 3549z" stroke="none" fill="white"/></mask></defs><g xmlns="http://www.w3.org/2000/svg" id="g1" class="photoview"><g id="layer_other" class="shapeBox"><path d="M4048 3549,4048 3407,4261 3407,4261 3549z" stroke="none" id="boardOutlineReal" fill="#80785F"/><path d="M4048 3549,4048 3407,4261 3407,4261 3549z" stroke="none" id="topBoardSolderReal" mask="url(#topBoardSolderMask)" fill="#002966"/><g id="topSignalReal" fill="#DCAA14" stroke="#DCAA14"><g c_partid="part_pad" c_etype="pinpart" layerid="1" id="gge85_1" c_origin="4218.5,3426.4" net="" c_rotation="0" c_width="4.72" c_height="4.72"><polygon points="4216.14 3424.04 4220.86 3424.04 4220.86 3428.76 4216.14 3428.76" stroke-width="0"/></g><g c_partid="part_pad" c_etype="pinpart" layerid="1" id="gge88_1" c_origin="4218.5,3434.6" net="" c_rotation="0" c_width="4.72" c_height="4.72"><polygon points="4216.14 3432.24 4220.86 3432.24 4220.86 3436.96 4216.14 3436.96" stroke-width="0"/></g><g c_partid="part_pad" c_etype="pinpart" layerid="1" id="gge101_1" c_origin="4188.5,3486.4" net="" c_rotation="0" c_width="4.72" c_height="4.72"><polygon points="4186.14 3484.04 4190.86 3484.04 4190.86 3488.76 4186.14 3488.76" stroke-width="0"/></g><g c_partid="part_pad" c_etype="pinpart" layerid="1" id="gge104_1" c_origin="4188.5,3494.6" net="" c_rotation="0" c_width="4.72" c_height="4.72"><polygon points="4186.14 3492.24 4190.86 3492.24 4190.86 3496.96 4186.14 3496.96" stroke-width="0"/></g></g><g id="topSignalSolderReal" mask="url(#topSignalSolderMask)" fill="#005CB6" stroke="#005CB6"><g c_partid="part_pad" c_etype="pinpart" layerid="1" id="gge85_1" c_origin="4218.5,3426.4" net="" c_rotation="0" c_width="4.72" c_height="4.72"><polygon points="4216.14 3424.04 4220.86 3424.04 4220.86 3428.76 4216.14 3428.76" stroke-width="0"/></g><g c_partid="part_pad" c_etype="pinpart" layerid="1" id="gge88_1" c_origin="4218.5,3434.6" net="" c_rotation="0" c_width="4.72" c_height="4.72"><polygon points="4216.14 3432.24 4220.86 3432.24 4220.86 3436.96 4216.14 3436.96" stroke-width="0"/></g><g c_partid="part_pad" c_etype="pinpart" layerid="1" id="gge101_1" c_origin="4188.5,3486.4" net="" c_rotation="0" c_width="4.72" c_height="4.72"><polygon points="4186.14 3484.04 4190.86 3484.04 4190.86 3488.76 4186.14 3488.76" stroke-width="0"/></g><g c_partid="part_pad" c_etype="pinpart" layerid="1" id="gge104_1" c_origin="4188.5,3494.6" net="" c_rotation="0" c_width="4.72" c_height="4.72"><polygon points="4186.14 3492.24 4190.86 3492.24 4190.86 3496.96 4186.14 3496.96" stroke-width="0"/></g></g><g id="topSilkLayer" fill="#FFFFFF" stroke="#FFFFFF"><polyline points="4196.5 3423.5 4196.5 3423.5 4203.5 3423.5 4203.5 3455.5 4183.5 3455.5 4183.5 3423.5 4190.5 3423.5 4190.5 3423.5" stroke-width="1" c_shapetype="line" stroke-linecap="round" fill="none" layerid="3" net="" id="gge7_3" locked="0"/><polyline points="4074.5 3533.5 4094.5 3533.5" stroke-width="1" c_shapetype="line" stroke-linecap="round" fill="none" layerid="3" net="" id="gge23_3" locked="0"/><polyline points="4094.5 3533.5 4094.5 3538.5" stroke-width="1" c_shapetype="line" stroke-linecap="round" fill="none" layerid="3" net="" id="gge24_3" locked="0"/><polyline points="4094.5 3538.5 4094.5 3543.5" stroke-width="1" c_shapetype="line" stroke-linecap="round" fill="none" layerid="3" net="" id="gge25_3" locked="0"/><polyline points="4094.5 3543.5 4074.5 3543.5" stroke-width="1" c_shapetype="line" stroke-linecap="round" fill="none" layerid="3" net="" id="gge26_3" locked="0"/><polyline points="4074.5 3543.5 4074.5 3538.5" stroke-width="1" c_shapetype="line" stroke-linecap="round" fill="none" layerid="3" net="" id="gge27_3" locked="0"/><polyline points="4074.5 3538.5 4074.5 3533.5" stroke-width="1" c_shapetype="line" stroke-linecap="round" fill="none" layerid="3" net="" id="gge28_3" locked="0"/><polyline points="4094.5 3538.5 4095.5 3538.5" stroke-width="1" c_shapetype="line" stroke-linecap="round" fill="none" layerid="3" net="" id="gge29_3" locked="0"/><polyline points="4074.5 3538.5 4073.5 3538.5" stroke-width="1" c_shapetype="line" stroke-linecap="round" fill="none" layerid="3" net="" id="gge30_3" locked="0"/><polyline points="4214.5 3493.5 4234.5 3493.5" stroke-width="1" c_shapetype="line" stroke-linecap="round" fill="none" layerid="3" net="" id="gge39_3" locked="0"/><polyline points="4234.5 3493.5 4234.5 3498.5" stroke-width="1" c_shapetype="line" stroke-linecap="round" fill="none" layerid="3" net="" id="gge40_3" locked="0"/><polyline points="4234.5 3498.5 4234.5 3503.5" stroke-width="1" c_shapetype="line" stroke-linecap="round" fill="none" layerid="3" net="" id="gge41_3" locked="0"/><polyline points="4234.5 3503.5 4214.5 3503.5" stroke-width="1" c_shapetype="line" stroke-linecap="round" fill="none" layerid="3" net="" id="gge42_3" locked="0"/><polyline points="4214.5 3503.5 4214.5 3498.5" stroke-width="1" c_shapetype="line" stroke-linecap="round" fill="none" layerid="3" net="" id="gge43_3" locked="0"/><polyline points="4214.5 3498.5 4214.5 3493.5" stroke-width="1" c_shapetype="line" stroke-linecap="round" fill="none" layerid="3" net="" id="gge44_3" locked="0"/><polyline points="4234.5 3498.5 4235.5 3498.5" stroke-width="1" c_shapetype="line" stroke-linecap="round" fill="none" layerid="3" net="" id="gge45_3" locked="0"/><polyline points="4214.5 3498.5 4213.5 3498.5" stroke-width="1" c_shapetype="line" stroke-linecap="round" fill="none" layerid="3" net="" id="gge46_3" locked="0"/><polyline points="4214.5 3463.5 4234.5 3463.5" stroke-width="1" c_shapetype="line" stroke-linecap="round" fill="none" layerid="3" net="" id="gge55_3" locked="0"/><polyline points="4234.5 3463.5 4234.5 3468.5" stroke-width="1" c_shapetype="line" stroke-linecap="round" fill="none" layerid="3" net="" id="gge56_3" locked="0"/><polyline points="4234.5 3468.5 4234.5 3473.5" stroke-width="1" c_shapetype="line" stroke-linecap="round" fill="none" layerid="3" net="" id="gge57_3" locked="0"/><polyline points="4234.5 3473.5 4214.5 3473.5" stroke-width="1" c_shapetype="line" stroke-linecap="round" fill="none" layerid="3" net="" id="gge58_3" locked="0"/><polyline points="4214.5 3473.5 4214.5 3468.5" stroke-width="1" c_shapetype="line" stroke-linecap="round" fill="none" layerid="3" net="" id="gge59_3" locked="0"/><polyline points="4214.5 3468.5 4214.5 3463.5" stroke-width="1" c_shapetype="line" stroke-linecap="round" fill="none" layerid="3" net="" id="gge60_3" locked="0"/><polyline points="4234.5 3468.5 4235.5 3468.5" stroke-width="1" c_shapetype="line" stroke-linecap="round" fill="none" layerid="3" net="" id="gge61_3" locked="0"/><polyline points="4214.5 3468.5 4213.5 3468.5" stroke-width="1" c_shapetype="line" stroke-linecap="round" fill="none" layerid="3" net="" id="gge62_3" locked="0"/><polyline points="4088 3478 4073.5 3478 4073.5 3455.5 4073.7072 3455 4087.5 3455" stroke-width="0.7874" c_shapetype="line" stroke-linecap="round" fill="none" layerid="3" net="" id="gge72_3" locked="0"/><g c_partid="part_pcbtext" c_etype="" c_origin="4193.5,3415.5" c_rotation="0" c_mirror="" id="gge3_3" locked="0" layerid="3" c_shapetype="group" display="none"><path c_fontsize="4.5" c_fontfamily="" c_text="ATTINY85 (THT)" d="M 4195.14 3410.96 L 4193.5 3415.25 M 4195.14 3410.96 L 4196.77 3415.25 M 4194.11 3413.82 L 4196.16 3413.82 M 4199.55 3410.96 L 4199.55 3415.25 M 4198.12 3410.96 L 4200.99 3410.96 M 4203.77 3410.96 L 4203.77 3415.25 M 4202.34 3410.96 L 4205.2 3410.96 M 4206.55 3410.96 L 4206.55 3415.25 M 4207.9 3410.96 L 4207.9 3415.25 M 4207.9 3410.96 L 4210.76 3415.25 M 4210.76 3410.96 L 4210.76 3415.25 M 4212.11 3410.96 L 4213.75 3413 L 4213.75 3415.25 M 4215.39 3410.96 L 4213.75 3413 M 4217.76 3410.96 L 4217.15 3411.16 L 4216.94 3411.57 L 4216.94 3411.98 L 4217.15 3412.39 L 4217.55 3412.6 L 4218.37 3412.8 L 4218.99 3413 L 4219.4 3413.41 L 4219.6 3413.82 L 4219.6 3414.44 L 4219.4 3414.85 L 4219.19 3415.05 L 4218.58 3415.25 L 4217.76 3415.25 L 4217.15 3415.05 L 4216.94 3414.85 L 4216.74 3414.44 L 4216.74 3413.82 L 4216.94 3413.41 L 4217.35 3413 L 4217.96 3412.8 L 4218.78 3412.6 L 4219.19 3412.39 L 4219.4 3411.98 L 4219.4 3411.57 L 4219.19 3411.16 L 4218.58 3410.96 L 4217.76 3410.96 M 4223.4 3410.96 L 4221.36 3410.96 L 4221.15 3412.8 L 4221.36 3412.6 L 4221.97 3412.39 L 4222.59 3412.39 L 4223.2 3412.6 L 4223.61 3413 L 4223.81 3413.62 L 4223.81 3414.03 L 4223.61 3414.64 L 4223.2 3415.05 L 4222.59 3415.25 L 4221.97 3415.25 L 4221.36 3415.05 L 4221.15 3414.85 L 4220.95 3414.44 M 4229.75 3410.14 L 4229.34 3410.55 L 4228.93 3411.16 L 4228.52 3411.98 L 4228.31 3413 L 4228.31 3413.82 L 4228.52 3414.85 L 4228.93 3415.66 L 4229.34 3416.28 L 4229.75 3416.69 M 4232.53 3410.96 L 4232.53 3415.25 M 4231.1 3410.96 L 4233.96 3410.96 M 4235.31 3410.96 L 4235.31 3415.25 M 4238.17 3410.96 L 4238.17 3415.25 M 4235.31 3413 L 4238.17 3413 M 4240.95 3410.96 L 4240.95 3415.25 M 4239.52 3410.96 L 4242.39 3410.96 M 4243.74 3410.14 L 4244.15 3410.55 L 4244.55 3411.16 L 4244.96 3411.98 L 4245.17 3413 L 4245.17 3413.82 L 4244.96 3414.85 L 4244.55 3415.66 L 4244.15 3416.28 L 4243.74 3416.69" fill="none" stroke-width="0.6" c_note="note_name" style=""/></g><g c_partid="part_pcbtext" c_etype="" c_origin="4193.5,3422.5" c_rotation="0" c_mirror="" id="gge5_3" locked="0" layerid="3" c_shapetype="group"><path c_fontsize="4.5" c_fontfamily="" c_text="U4" d="M 4193.5 3417.96 L 4193.5 3421.03 L 4193.7 3421.64 L 4194.11 3422.05 L 4194.73 3422.25 L 4195.14 3422.25 L 4195.75 3422.05 L 4196.16 3421.64 L 4196.36 3421.03 L 4196.36 3417.96 M 4199.76 3417.96 L 4197.71 3420.82 L 4200.78 3420.82 M 4199.76 3417.96 L 4199.76 3422.25" fill="none" stroke-width="0.6" c_note="note_pre" style=""/></g><g c_partid="part_pcbtext" c_etype="" c_origin="4084.5,3525.5" c_rotation="0" c_mirror="" id="gge19_3" locked="0" layerid="3" c_shapetype="group" display="none"><path c_fontsize="4.5" c_fontfamily="" c_text="220OHM" d="M 4084.7 3521.98 L 4084.7 3521.78 L 4084.91 3521.37 L 4085.11 3521.16 L 4085.52 3520.96 L 4086.34 3520.96 L 4086.75 3521.16 L 4086.95 3521.37 L 4087.16 3521.78 L 4087.16 3522.19 L 4086.95 3522.6 L 4086.55 3523.21 L 4084.5 3525.25 L 4087.36 3525.25 M 4088.92 3521.98 L 4088.92 3521.78 L 4089.12 3521.37 L 4089.33 3521.16 L 4089.74 3520.96 L 4090.55 3520.96 L 4090.96 3521.16 L 4091.17 3521.37 L 4091.37 3521.78 L 4091.37 3522.19 L 4091.17 3522.6 L 4090.76 3523.21 L 4088.71 3525.25 L 4091.58 3525.25 M 4094.15 3520.96 L 4093.54 3521.16 L 4093.13 3521.78 L 4092.93 3522.8 L 4092.93 3523.41 L 4093.13 3524.44 L 4093.54 3525.05 L 4094.15 3525.25 L 4094.56 3525.25 L 4095.18 3525.05 L 4095.59 3524.44 L 4095.79 3523.41 L 4095.79 3522.8 L 4095.59 3521.78 L 4095.18 3521.16 L 4094.56 3520.96 L 4094.15 3520.96 M 4098.37 3520.96 L 4097.96 3521.16 L 4097.55 3521.57 L 4097.35 3521.98 L 4097.14 3522.6 L 4097.14 3523.62 L 4097.35 3524.23 L 4097.55 3524.64 L 4097.96 3525.05 L 4098.37 3525.25 L 4099.19 3525.25 L 4099.6 3525.05 L 4100 3524.64 L 4100.21 3524.23 L 4100.41 3523.62 L 4100.41 3522.6 L 4100.21 3521.98 L 4100 3521.57 L 4099.6 3521.16 L 4099.19 3520.96 L 4098.37 3520.96 M 4101.76 3520.96 L 4101.76 3525.25 M 4104.63 3520.96 L 4104.63 3525.25 M 4101.76 3523 L 4104.63 3523 M 4105.98 3520.96 L 4105.98 3525.25 M 4105.98 3520.96 L 4107.61 3525.25 M 4109.25 3520.96 L 4107.61 3525.25 M 4109.25 3520.96 L 4109.25 3525.25" fill="none" stroke-width="0.6" c_note="note_name" style=""/></g><g c_partid="part_pcbtext" c_etype="" c_origin="4084.5,3532.5" c_rotation="0" c_mirror="" id="gge21_3" locked="0" layerid="3" c_shapetype="group"><path c_fontsize="4.5" c_fontfamily="" c_text="R4" d="M 4084.5 3527.96 L 4084.5 3532.25 M 4084.5 3527.96 L 4086.34 3527.96 L 4086.95 3528.16 L 4087.16 3528.37 L 4087.36 3528.78 L 4087.36 3529.19 L 4087.16 3529.6 L 4086.95 3529.8 L 4086.34 3530 L 4084.5 3530 M 4085.93 3530 L 4087.36 3532.25 M 4090.76 3527.96 L 4088.71 3530.82 L 4091.78 3530.82 M 4090.76 3527.96 L 4090.76 3532.25" fill="none" stroke-width="0.6" c_note="note_pre" style=""/></g><g c_partid="part_pcbtext" c_etype="" c_origin="4224.5,3485.5" c_rotation="0" c_mirror="" id="gge35_3" locked="0" layerid="3" c_shapetype="group" display="none"><path c_fontsize="4.5" c_fontfamily="" c_text="220OHM" d="M 4224.7 3481.98 L 4224.7 3481.78 L 4224.91 3481.37 L 4225.11 3481.16 L 4225.52 3480.96 L 4226.34 3480.96 L 4226.75 3481.16 L 4226.95 3481.37 L 4227.16 3481.78 L 4227.16 3482.19 L 4226.95 3482.6 L 4226.55 3483.21 L 4224.5 3485.25 L 4227.36 3485.25 M 4228.92 3481.98 L 4228.92 3481.78 L 4229.12 3481.37 L 4229.33 3481.16 L 4229.74 3480.96 L 4230.55 3480.96 L 4230.96 3481.16 L 4231.17 3481.37 L 4231.37 3481.78 L 4231.37 3482.19 L 4231.17 3482.6 L 4230.76 3483.21 L 4228.71 3485.25 L 4231.58 3485.25 M 4234.15 3480.96 L 4233.54 3481.16 L 4233.13 3481.78 L 4232.93 3482.8 L 4232.93 3483.41 L 4233.13 3484.44 L 4233.54 3485.05 L 4234.15 3485.25 L 4234.56 3485.25 L 4235.18 3485.05 L 4235.59 3484.44 L 4235.79 3483.41 L 4235.79 3482.8 L 4235.59 3481.78 L 4235.18 3481.16 L 4234.56 3480.96 L 4234.15 3480.96 M 4238.37 3480.96 L 4237.96 3481.16 L 4237.55 3481.57 L 4237.35 3481.98 L 4237.14 3482.6 L 4237.14 3483.62 L 4237.35 3484.23 L 4237.55 3484.64 L 4237.96 3485.05 L 4238.37 3485.25 L 4239.19 3485.25 L 4239.6 3485.05 L 4240 3484.64 L 4240.21 3484.23 L 4240.41 3483.62 L 4240.41 3482.6 L 4240.21 3481.98 L 4240 3481.57 L 4239.6 3481.16 L 4239.19 3480.96 L 4238.37 3480.96 M 4241.76 3480.96 L 4241.76 3485.25 M 4244.63 3480.96 L 4244.63 3485.25 M 4241.76 3483 L 4244.63 3483 M 4245.98 3480.96 L 4245.98 3485.25 M 4245.98 3480.96 L 4247.61 3485.25 M 4249.25 3480.96 L 4247.61 3485.25 M 4249.25 3480.96 L 4249.25 3485.25" fill="none" stroke-width="0.6" c_note="note_name" style=""/></g><g c_partid="part_pcbtext" c_etype="" c_origin="4224.5,3492.5" c_rotation="0" c_mirror="" id="gge37_3" locked="0" layerid="3" c_shapetype="group"><path c_fontsize="4.5" c_fontfamily="" c_text="R3" d="M 4224.5 3487.96 L 4224.5 3492.25 M 4224.5 3487.96 L 4226.34 3487.96 L 4226.95 3488.16 L 4227.16 3488.37 L 4227.36 3488.78 L 4227.36 3489.19 L 4227.16 3489.6 L 4226.95 3489.8 L 4226.34 3490 L 4224.5 3490 M 4225.93 3490 L 4227.36 3492.25 M 4229.12 3487.96 L 4231.37 3487.96 L 4230.15 3489.6 L 4230.76 3489.6 L 4231.17 3489.8 L 4231.37 3490 L 4231.58 3490.62 L 4231.58 3491.03 L 4231.37 3491.64 L 4230.96 3492.05 L 4230.35 3492.25 L 4229.74 3492.25 L 4229.12 3492.05 L 4228.92 3491.85 L 4228.71 3491.44" fill="none" stroke-width="0.6" c_note="note_pre" style=""/></g><g c_partid="part_pcbtext" c_etype="" c_origin="4224.5,3455.5" c_rotation="0" c_mirror="" id="gge51_3" locked="0" layerid="3" c_shapetype="group" display="none"><path c_fontsize="4.5" c_fontfamily="" c_text="220OHM" d="M 4224.7 3451.98 L 4224.7 3451.78 L 4224.91 3451.37 L 4225.11 3451.16 L 4225.52 3450.96 L 4226.34 3450.96 L 4226.75 3451.16 L 4226.95 3451.37 L 4227.16 3451.78 L 4227.16 3452.19 L 4226.95 3452.6 L 4226.55 3453.21 L 4224.5 3455.25 L 4227.36 3455.25 M 4228.92 3451.98 L 4228.92 3451.78 L 4229.12 3451.37 L 4229.33 3451.16 L 4229.74 3450.96 L 4230.55 3450.96 L 4230.96 3451.16 L 4231.17 3451.37 L 4231.37 3451.78 L 4231.37 3452.19 L 4231.17 3452.6 L 4230.76 3453.21 L 4228.71 3455.25 L 4231.58 3455.25 M 4234.15 3450.96 L 4233.54 3451.16 L 4233.13 3451.78 L 4232.93 3452.8 L 4232.93 3453.41 L 4233.13 3454.44 L 4233.54 3455.05 L 4234.15 3455.25 L 4234.56 3455.25 L 4235.18 3455.05 L 4235.59 3454.44 L 4235.79 3453.41 L 4235.79 3452.8 L 4235.59 3451.78 L 4235.18 3451.16 L 4234.56 3450.96 L 4234.15 3450.96 M 4238.37 3450.96 L 4237.96 3451.16 L 4237.55 3451.57 L 4237.35 3451.98 L 4237.14 3452.6 L 4237.14 3453.62 L 4237.35 3454.23 L 4237.55 3454.64 L 4237.96 3455.05 L 4238.37 3455.25 L 4239.19 3455.25 L 4239.6 3455.05 L 4240 3454.64 L 4240.21 3454.23 L 4240.41 3453.62 L 4240.41 3452.6 L 4240.21 3451.98 L 4240 3451.57 L 4239.6 3451.16 L 4239.19 3450.96 L 4238.37 3450.96 M 4241.76 3450.96 L 4241.76 3455.25 M 4244.63 3450.96 L 4244.63 3455.25 M 4241.76 3453 L 4244.63 3453 M 4245.98 3450.96 L 4245.98 3455.25 M 4245.98 3450.96 L 4247.61 3455.25 M 4249.25 3450.96 L 4247.61 3455.25 M 4249.25 3450.96 L 4249.25 3455.25" fill="none" stroke-width="0.6" c_note="note_name" style=""/></g><g c_partid="part_pcbtext" c_etype="" c_origin="4224.5,3462.5" c_rotation="0" c_mirror="" id="gge53_3" locked="0" layerid="3" c_shapetype="group"><path c_fontsize="4.5" c_fontfamily="" c_text="R2" d="M 4224.5 3457.96 L 4224.5 3462.25 M 4224.5 3457.96 L 4226.34 3457.96 L 4226.95 3458.16 L 4227.16 3458.37 L 4227.36 3458.78 L 4227.36 3459.19 L 4227.16 3459.6 L 4226.95 3459.8 L 4226.34 3460 L 4224.5 3460 M 4225.93 3460 L 4227.36 3462.25 M 4228.92 3458.98 L 4228.92 3458.78 L 4229.12 3458.37 L 4229.33 3458.16 L 4229.74 3457.96 L 4230.55 3457.96 L 4230.96 3458.16 L 4231.17 3458.37 L 4231.37 3458.78 L 4231.37 3459.19 L 4231.17 3459.6 L 4230.76 3460.21 L 4228.71 3462.25 L 4231.58 3462.25" fill="none" stroke-width="0.6" c_note="note_pre" style=""/></g><g c_partid="part_pcbtext" c_etype="" c_origin="4122.75,3415.5" c_rotation="0" c_mirror="" id="gge67_3" locked="0" layerid="3" c_shapetype="group" display="none"><path c_fontsize="4.5" c_fontfamily="" c_text="CR2032 BATTERY HOLDER (THT)" d="M 4125.82 3411.98 L 4125.61 3411.57 L 4125.2 3411.16 L 4124.8 3410.96 L 4123.98 3410.96 L 4123.57 3411.16 L 4123.16 3411.57 L 4122.95 3411.98 L 4122.75 3412.6 L 4122.75 3413.62 L 4122.95 3414.23 L 4123.16 3414.64 L 4123.57 3415.05 L 4123.98 3415.25 L 4124.8 3415.25 L 4125.2 3415.05 L 4125.61 3414.64 L 4125.82 3414.23 M 4127.17 3410.96 L 4127.17 3415.25 M 4127.17 3410.96 L 4129.01 3410.96 L 4129.62 3411.16 L 4129.83 3411.37 L 4130.03 3411.78 L 4130.03 3412.19 L 4129.83 3412.6 L 4129.62 3412.8 L 4129.01 3413 L 4127.17 3413 M 4128.6 3413 L 4130.03 3415.25 M 4131.59 3411.98 L 4131.59 3411.78 L 4131.79 3411.37 L 4132 3411.16 L 4132.4 3410.96 L 4133.22 3410.96 L 4133.63 3411.16 L 4133.84 3411.37 L 4134.04 3411.78 L 4134.04 3412.19 L 4133.84 3412.6 L 4133.43 3413.21 L 4131.38 3415.25 L 4134.25 3415.25 M 4136.82 3410.96 L 4136.21 3411.16 L 4135.8 3411.78 L 4135.6 3412.8 L 4135.6 3413.41 L 4135.8 3414.44 L 4136.21 3415.05 L 4136.82 3415.25 L 4137.23 3415.25 L 4137.85 3415.05 L 4138.25 3414.44 L 4138.46 3413.41 L 4138.46 3412.8 L 4138.25 3411.78 L 4137.85 3411.16 L 4137.23 3410.96 L 4136.82 3410.96 M 4140.22 3410.96 L 4142.47 3410.96 L 4141.24 3412.6 L 4141.85 3412.6 L 4142.26 3412.8 L 4142.47 3413 L 4142.67 3413.62 L 4142.67 3414.03 L 4142.47 3414.64 L 4142.06 3415.05 L 4141.45 3415.25 L 4140.83 3415.25 L 4140.22 3415.05 L 4140.01 3414.85 L 4139.81 3414.44 M 4144.23 3411.98 L 4144.23 3411.78 L 4144.43 3411.37 L 4144.64 3411.16 L 4145.05 3410.96 L 4145.86 3410.96 L 4146.27 3411.16 L 4146.48 3411.37 L 4146.68 3411.78 L 4146.68 3412.19 L 4146.48 3412.6 L 4146.07 3413.21 L 4144.02 3415.25 L 4146.89 3415.25 M 4151.39 3410.96 L 4151.39 3415.25 M 4151.39 3410.96 L 4153.23 3410.96 L 4153.84 3411.16 L 4154.05 3411.37 L 4154.25 3411.78 L 4154.25 3412.19 L 4154.05 3412.6 L 4153.84 3412.8 L 4153.23 3413 M 4151.39 3413 L 4153.23 3413 L 4153.84 3413.21 L 4154.05 3413.41 L 4154.25 3413.82 L 4154.25 3414.44 L 4154.05 3414.85 L 4153.84 3415.05 L 4153.23 3415.25 L 4151.39 3415.25 M 4157.24 3410.96 L 4155.6 3415.25 M 4157.24 3410.96 L 4158.87 3415.25 M 4156.21 3413.82 L 4158.26 3413.82 M 4161.65 3410.96 L 4161.65 3415.25 M 4160.22 3410.96 L 4163.09 3410.96 M 4165.87 3410.96 L 4165.87 3415.25 M 4164.44 3410.96 L 4167.3 3410.96 M 4168.65 3410.96 L 4168.65 3415.25 M 4168.65 3410.96 L 4171.31 3410.96 M 4168.65 3413 L 4170.29 3413 M 4168.65 3415.25 L 4171.31 3415.25 M 4172.66 3410.96 L 4172.66 3415.25 M 4172.66 3410.96 L 4174.5 3410.96 L 4175.11 3411.16 L 4175.32 3411.37 L 4175.52 3411.78 L 4175.52 3412.19 L 4175.32 3412.6 L 4175.11 3412.8 L 4174.5 3413 L 4172.66 3413 M 4174.09 3413 L 4175.52 3415.25 M 4176.87 3410.96 L 4178.51 3413 L 4178.51 3415.25 M 4180.15 3410.96 L 4178.51 3413 M 4184.65 3410.96 L 4184.65 3415.25 M 4187.51 3410.96 L 4187.51 3415.25 M 4184.65 3413 L 4187.51 3413 M 4190.09 3410.96 L 4189.68 3411.16 L 4189.27 3411.57 L 4189.06 3411.98 L 4188.86 3412.6 L 4188.86 3413.62 L 4189.06 3414.23 L 4189.27 3414.64 L 4189.68 3415.05 L 4190.09 3415.25 L 4190.9 3415.25 L 4191.31 3415.05 L 4191.72 3414.64 L 4191.93 3414.23 L 4192.13 3413.62 L 4192.13 3412.6 L 4191.93 3411.98 L 4191.72 3411.57 L 4191.31 3411.16 L 4190.9 3410.96 L 4190.09 3410.96 M 4193.48 3410.96 L 4193.48 3415.25 M 4193.48 3415.25 L 4195.94 3415.25 M 4197.29 3410.96 L 4197.29 3415.25 M 4197.29 3410.96 L 4198.72 3410.96 L 4199.33 3411.16 L 4199.74 3411.57 L 4199.95 3411.98 L 4200.15 3412.6 L 4200.15 3413.62 L 4199.95 3414.23 L 4199.74 3414.64 L 4199.33 3415.05 L 4198.72 3415.25 L 4197.29 3415.25 M 4201.5 3410.96 L 4201.5 3415.25 M 4201.5 3410.96 L 4204.16 3410.96 M 4201.5 3413 L 4203.14 3413 M 4201.5 3415.25 L 4204.16 3415.25 M 4205.51 3410.96 L 4205.51 3415.25 M 4205.51 3410.96 L 4207.35 3410.96 L 4207.96 3411.16 L 4208.17 3411.37 L 4208.37 3411.78 L 4208.37 3412.19 L 4208.17 3412.6 L 4207.96 3412.8 L 4207.35 3413 L 4205.51 3413 M 4206.94 3413 L 4208.37 3415.25 M 4214.3 3410.14 L 4213.9 3410.55 L 4213.49 3411.16 L 4213.08 3411.98 L 4212.87 3413 L 4212.87 3413.82 L 4213.08 3414.85 L 4213.49 3415.66 L 4213.9 3416.28 L 4214.3 3416.69 M 4217.09 3410.96 L 4217.09 3415.25 M 4215.65 3410.96 L 4218.52 3410.96 M 4219.87 3410.96 L 4219.87 3415.25 M 4222.73 3410.96 L 4222.73 3415.25 M 4219.87 3413 L 4222.73 3413 M 4225.51 3410.96 L 4225.51 3415.25 M 4224.08 3410.96 L 4226.95 3410.96 M 4228.3 3410.14 L 4228.7 3410.55 L 4229.11 3411.16 L 4229.52 3411.98 L 4229.73 3413 L 4229.73 3413.82 L 4229.52 3414.85 L 4229.11 3415.66 L 4228.7 3416.28 L 4228.3 3416.69" fill="none" stroke-width="0.6" c_note="note_name" style=""/></g><g c_partid="part_pcbtext" c_etype="" c_origin="4122.75,3422.5" c_rotation="0" c_mirror="" id="gge69_3" locked="0" layerid="3" c_shapetype="group"><path c_fontsize="4.5" c_fontfamily="" c_text="B2" d="M 4122.75 3417.96 L 4122.75 3422.25 M 4122.75 3417.96 L 4124.59 3417.96 L 4125.2 3418.16 L 4125.41 3418.37 L 4125.61 3418.78 L 4125.61 3419.19 L 4125.41 3419.6 L 4125.2 3419.8 L 4124.59 3420 M 4122.75 3420 L 4124.59 3420 L 4125.2 3420.21 L 4125.41 3420.41 L 4125.61 3420.82 L 4125.61 3421.44 L 4125.41 3421.85 L 4125.2 3422.05 L 4124.59 3422.25 L 4122.75 3422.25 M 4127.17 3418.98 L 4127.17 3418.78 L 4127.37 3418.37 L 4127.58 3418.16 L 4127.99 3417.96 L 4128.8 3417.96 L 4129.21 3418.16 L 4129.42 3418.37 L 4129.62 3418.78 L 4129.62 3419.19 L 4129.42 3419.6 L 4129.01 3420.21 L 4126.96 3422.25 L 4129.83 3422.25" fill="none" stroke-width="0.6" c_note="note_pre" style=""/></g><g c_partid="part_pcbtext" c_etype="" c_origin="4216.5,3415.5" c_rotation="0" c_mirror="" id="gge77_3" locked="0" layerid="3" c_shapetype="group" display="none"><path c_fontsize="4.5" c_fontfamily="" c_text="LED" d="M 4216.5 3410.96 L 4216.5 3415.25 M 4216.5 3415.25 L 4218.95 3415.25 M 4220.3 3410.96 L 4220.3 3415.25 M 4220.3 3410.96 L 4222.96 3410.96 M 4220.3 3413 L 4221.94 3413 M 4220.3 3415.25 L 4222.96 3415.25 M 4224.31 3410.96 L 4224.31 3415.25 M 4224.31 3410.96 L 4225.75 3410.96 L 4226.36 3411.16 L 4226.77 3411.57 L 4226.97 3411.98 L 4227.18 3412.6 L 4227.18 3413.62 L 4226.97 3414.23 L 4226.77 3414.64 L 4226.36 3415.05 L 4225.75 3415.25 L 4224.31 3415.25" fill="none" stroke-width="0.6" c_note="note_name" style=""/></g><g c_partid="part_pcbtext" c_etype="" c_origin="4216.5,3422.5" c_rotation="0" c_mirror="" id="gge79_3" locked="0" layerid="3" c_shapetype="group"><path c_fontsize="4.5" c_fontfamily="" c_text="LED2" d="M 4216.5 3417.96 L 4216.5 3422.25 M 4216.5 3422.25 L 4218.95 3422.25 M 4220.3 3417.96 L 4220.3 3422.25 M 4220.3 3417.96 L 4222.96 3417.96 M 4220.3 3420 L 4221.94 3420 M 4220.3 3422.25 L 4222.96 3422.25 M 4224.31 3417.96 L 4224.31 3422.25 M 4224.31 3417.96 L 4225.75 3417.96 L 4226.36 3418.16 L 4226.77 3418.57 L 4226.97 3418.98 L 4227.18 3419.6 L 4227.18 3420.62 L 4226.97 3421.23 L 4226.77 3421.64 L 4226.36 3422.05 L 4225.75 3422.25 L 4224.31 3422.25 M 4228.73 3418.98 L 4228.73 3418.78 L 4228.94 3418.37 L 4229.14 3418.16 L 4229.55 3417.96 L 4230.37 3417.96 L 4230.78 3418.16 L 4230.98 3418.37 L 4231.19 3418.78 L 4231.19 3419.19 L 4230.98 3419.6 L 4230.57 3420.21 L 4228.53 3422.25 L 4231.39 3422.25" fill="none" stroke-width="0.6" c_note="note_pre" style=""/></g><g c_partid="part_pcbtext" c_etype="" c_origin="4213.5,3440.5" c_rotation="0" c_mirror="0" id="gge81_3" locked="0" layerid="3" c_shapetype="group"><path c_fontsize="2" c_fontfamily="" c_text="+" d="M 4214.32 3439.68 L 4214.32 3441.32 M 4213.5 3440.5 L 4215.14 3440.5" fill="none" stroke-width="0.6"/></g><g c_partid="part_pcbtext" c_etype="" c_origin="4186.5,3475.5" c_rotation="0" c_mirror="" id="gge93_3" locked="0" layerid="3" c_shapetype="group" display="none"><path c_fontsize="4.5" c_fontfamily="" c_text="LED" d="M 4186.5 3470.96 L 4186.5 3475.25 M 4186.5 3475.25 L 4188.95 3475.25 M 4190.3 3470.96 L 4190.3 3475.25 M 4190.3 3470.96 L 4192.96 3470.96 M 4190.3 3473 L 4191.94 3473 M 4190.3 3475.25 L 4192.96 3475.25 M 4194.31 3470.96 L 4194.31 3475.25 M 4194.31 3470.96 L 4195.75 3470.96 L 4196.36 3471.16 L 4196.77 3471.57 L 4196.97 3471.98 L 4197.18 3472.6 L 4197.18 3473.62 L 4196.97 3474.23 L 4196.77 3474.64 L 4196.36 3475.05 L 4195.75 3475.25 L 4194.31 3475.25" fill="none" stroke-width="0.6" c_note="note_name" style=""/></g><g c_partid="part_pcbtext" c_etype="" c_origin="4186.5,3482.5" c_rotation="0" c_mirror="" id="gge95_3" locked="0" layerid="3" c_shapetype="group"><path c_fontsize="4.5" c_fontfamily="" c_text="LED1" d="M 4186.5 3477.96 L 4186.5 3482.25 M 4186.5 3482.25 L 4188.95 3482.25 M 4190.3 3477.96 L 4190.3 3482.25 M 4190.3 3477.96 L 4192.96 3477.96 M 4190.3 3480 L 4191.94 3480 M 4190.3 3482.25 L 4192.96 3482.25 M 4194.31 3477.96 L 4194.31 3482.25 M 4194.31 3477.96 L 4195.75 3477.96 L 4196.36 3478.16 L 4196.77 3478.57 L 4196.97 3478.98 L 4197.18 3479.6 L 4197.18 3480.62 L 4196.97 3481.23 L 4196.77 3481.64 L 4196.36 3482.05 L 4195.75 3482.25 L 4194.31 3482.25 M 4198.53 3478.78 L 4198.94 3478.57 L 4199.55 3477.96 L 4199.55 3482.25" fill="none" stroke-width="0.6" c_note="note_pre" style=""/></g><g c_partid="part_pcbtext" c_etype="" c_origin="4183.5,3500.5" c_rotation="0" c_mirror="0" id="gge97_3" locked="0" layerid="3" c_shapetype="group"><path c_fontsize="2" c_fontfamily="" c_text="+" d="M 4184.32 3499.68 L 4184.32 3501.32 M 4183.5 3500.5 L 4185.14 3500.5" fill="none" stroke-width="0.6"/></g><path d="M 4190.5 3423.5 A 3 3 0 1 0 4196.5 3423.5" locked="0" c_shapetype="line" fill="none" stroke-width="1" c_helper_type="arc2" net="" layerid="3" id="gge8_3"/><path d="M 4173 3466.25 A 43.25072 43.25072 0 1 0 4172.99 3467.02" locked="0" c_shapetype="line" fill="none" stroke-width="1" c_helper_type="arc2" net="" layerid="3" id="gge71_3"/></g><path d="M4048 3549,4048 3407,4261 3407,4261 3549z" stroke="none" id="bottomBoardSolderReal" mask="url(#bottomBoardSolderMask)" fill="#002966" display="none"/></g></g></svg>