<?xml version="1.0" encoding="utf-8" standalone="no"?><svg xmlns="http://www.w3.org/2000/svg" xmlns:xlink="http://www.w3.org/1999/xlink" width="70.358mm" height="59.182mm" viewBox="4040 3040 277 233"><title>Photo View</title><rect x="4040" y="3040" width="277" height="233" fill="#000000" stroke="none"/><defs xmlns="http://www.w3.org/2000/svg" id="patterns"><pattern id="gridPattern" x="4000" y="3000" width="10" height="10" patternUnits="userSpaceOnUse"><rect id="gridCell" x="0" y="0" width="0.66668" height="0.66668" fill="#FFFFFF" stroke="none" fill-opacity="0.8"/></pattern><pattern id="gridPattern2" x="4000.66668" y="3000.66668" width="10" height="10" patternUnits="userSpaceOnUse"><path id="gridCell2" d="M10 0V10H-10" fill="none" stroke="#FFFFFF" stroke-width="0.66668" stroke-opacity="0.6"/></pattern><marker id="arrowOnStart" orient="auto" refY="0" refX="0" style="overflow:visible" markerUnits="strokeWidth"><path d="M 2,0 l 4,-2, 0,4 z" stroke-width="6"/></marker><marker id="arrowOnEnd" orient="auto" refY="0" refX="0" style="overflow:visible" markerUnits="strokeWidth"><path d="M -2,0 l -4,-2, 0,4 z" stroke-width="6"/></marker><marker id="arrowOnStartChrome" orient="auto" refY="0" refX="0" style="overflow:visible" markerUnits="strokeWidth"><path d="M 2,0 l 4,-2, 0,4 z" stroke-width="3" stroke="#FFFFFF"/></marker><marker id="arrowOnEndChrome" orient="auto" refY="0" refX="0" style="overflow:visible" markerUnits="strokeWidth"><path d="M -2,0 l -4,-2, 0,4 z" stroke-width="3" stroke="#FFFFFF"/></marker><svg id="icon-lock" title="Unlock" viewBox="0 0 20 20" height="20" width="20"><path stroke="#F0F" stroke-width="2" style="cursor:pointer;fill-opacity:.001;fill:#fff" d="M 5 7 C 5 -1 15 -1 15 7L1 7 1 19 19 19 19 7 15 7"/></svg><mask id="multiLayerMask" maskUnits="userSpaceOnUse" x="4050" y="3050" width="257" height="213"><path d="M4050 3263,4050 3050,4307 3050,4307 3263z" stroke="none" fill="white"/><g fill="black"><circle cx="4173.3999" cy="3175.5" r="1.8" stroke-width="0"/><circle cx="4173.3999" cy="3185.5" r="1.8" stroke-width="0"/><circle cx="4173.3999" cy="3195.5" r="1.8" stroke-width="0"/><circle cx="4173.3999" cy="3205.5" r="1.8" stroke-width="0"/><circle cx="4203.3999" cy="3205.5" r="1.8" stroke-width="0"/><circle cx="4203.3999" cy="3195.5" r="1.8" stroke-width="0"/><circle cx="4203.3999" cy="3185.5" r="1.8" stroke-width="0"/><circle cx="4203.3999" cy="3175.5" r="1.8" stroke-width="0"/><circle cx="4089" cy="3206.9" r="1.57" stroke-width="0"/><circle cx="4083.7" cy="3201.5" r="1.57" stroke-width="0"/><circle cx="4084.4" cy="3246.5" r="2" stroke-width="0"/><circle cx="4114.4" cy="3246.5" r="2" stroke-width="0"/><circle cx="4195.5" cy="3104.5" r="2.9528" stroke-width="0"/><circle cx="4278" cy="3104.5" r="2.9528" stroke-width="0"/><circle cx="4085.5" cy="3104.5" r="2.9528" stroke-width="0"/><circle cx="4168" cy="3104.5" r="2.9528" stroke-width="0"/></g></mask><mask id="topBoardSolderMask" maskUnits="userSpaceOnUse" x="4050" y="3050" width="257" height="213"><path d="M4050 3263,4050 3050,4307 3050,4307 3263z" stroke="none" fill="white"/><g fill="black"><polygon points="4219.6 3184.63 4219.6 3174.38 4229.06 3174.38 4229.06 3184.63" stroke-width="0" c_etype="pad_outer"/><polygon points="4239 3184.63 4239 3174.38 4248.46 3174.38 4248.46 3184.63" stroke-width="0" c_etype="pad_outer"/><polygon points="4263.3 3177.15 4263.3 3171.85 4268.1 3171.85 4268.1 3177.15" stroke-width="0" c_etype="pad_outer"/><polygon points="4266.8 3185.15 4266.8 3179.85 4271.6 3179.85 4271.6 3185.15" stroke-width="0" c_etype="pad_outer"/><polygon points="4259.8 3185.15 4259.8 3179.85 4264.6 3179.85 4264.6 3185.15" stroke-width="0" c_etype="pad_outer"/><polygon points="4143.6 3181.4 4143.6 3171.6 4154.4 3171.6 4154.4 3181.4" stroke-width="0" c_etype="pad_outer"/><polygon points="4147.6 3223.4 4147.6 3215.6 4150.4 3215.6 4150.4 3223.4" stroke-width="0" c_etype="pad_outer"/><polygon points="4142.6 3223.4 4142.6 3215.6 4145.4 3215.6 4145.4 3223.4" stroke-width="0" c_etype="pad_outer"/><polygon points="4152.6 3223.4 4152.6 3215.6 4155.4 3215.6 4155.4 3223.4" stroke-width="0" c_etype="pad_outer"/><polygon points="4170 3178.9 4170 3172.1 4176.8 3172.1 4176.8 3178.9" stroke-width="0" c_etype="pad_outer"/><ellipse cx="4173.3999" cy="3185.5" rx="3.4" ry="3.4" stroke-width="0" c_etype="pad_outer"/><ellipse cx="4173.3999" cy="3195.5" rx="3.4" ry="3.4" stroke-width="0" c_etype="pad_outer"/><ellipse cx="4173.3999" cy="3205.5" rx="3.4" ry="3.4" stroke-width="0" c_etype="pad_outer"/><ellipse cx="4203.3999" cy="3205.5" rx="3.4" ry="3.4" stroke-width="0" c_etype="pad_outer"/><ellipse cx="4203.3999" cy="3195.5" rx="3.4" ry="3.4" stroke-width="0" c_etype="pad_outer"/><ellipse cx="4203.3999" cy="3185.5" rx="3.4" ry="3.4" stroke-width="0" c_etype="pad_outer"/><ellipse cx="4203.3999" cy="3175.5" rx="3.4" ry="3.4" stroke-width="0" c_etype="pad_outer"/><ellipse cx="4089" cy="3206.9" rx="3.6999999999999997" ry="3.6999999999999997" stroke-width="0" c_etype="pad_outer"/><ellipse cx="4083.7" cy="3201.5" rx="3.6999999999999997" ry="3.6999999999999997" stroke-width="0" c_etype="pad_outer"/><ellipse cx="4084.4" cy="3246.5" rx="4.4" ry="4.4" stroke-width="0" c_etype="pad_outer"/><ellipse cx="4114.4" cy="3246.5" rx="4.4" ry="4.4" stroke-width="0" c_etype="pad_outer"/><ellipse cx="4195.5" cy="3104.5" rx="4.337" ry="4.337" stroke-width="0" c_etype="pad_outer"/><ellipse cx="4278" cy="3104.5" rx="4.337" ry="4.337" stroke-width="0" c_etype="pad_outer"/><ellipse cx="4085.5" cy="3104.5" rx="4.337" ry="4.337" stroke-width="0" c_etype="pad_outer"/><ellipse cx="4168" cy="3104.5" rx="4.337" ry="4.337" stroke-width="0" c_etype="pad_outer"/></g></mask><mask id="topSignalSolderMask" maskUnits="userSpaceOnUse" x="4050" y="3050" width="257" height="213"><path d="M4050 3263,4050 3050,4307 3050,4307 3263z" stroke="none" fill="white"/><g fill="black"><polygon points="4219.6 3184.63 4219.6 3174.38 4229.06 3174.38 4229.06 3184.63" stroke-width="0" c_etype="pad_outer"/><polygon points="4239 3184.63 4239 3174.38 4248.46 3174.38 4248.46 3184.63" stroke-width="0" c_etype="pad_outer"/><polygon points="4263.3 3177.15 4263.3 3171.85 4268.1 3171.85 4268.1 3177.15" stroke-width="0" c_etype="pad_outer"/><polygon points="4266.8 3185.15 4266.8 3179.85 4271.6 3179.85 4271.6 3185.15" stroke-width="0" c_etype="pad_outer"/><polygon points="4259.8 3185.15 4259.8 3179.85 4264.6 3179.85 4264.6 3185.15" stroke-width="0" c_etype="pad_outer"/><polygon points="4143.6 3181.4 4143.6 3171.6 4154.4 3171.6 4154.4 3181.4" stroke-width="0" c_etype="pad_outer"/><polygon points="4147.6 3223.4 4147.6 3215.6 4150.4 3215.6 4150.4 3223.4" stroke-width="0" c_etype="pad_outer"/><polygon points="4142.6 3223.4 4142.6 3215.6 4145.4 3215.6 4145.4 3223.4" stroke-width="0" c_etype="pad_outer"/><polygon points="4152.6 3223.4 4152.6 3215.6 4155.4 3215.6 4155.4 3223.4" stroke-width="0" c_etype="pad_outer"/><polygon points="4170 3178.9 4170 3172.1 4176.8 3172.1 4176.8 3178.9" stroke-width="0" c_etype="pad_outer"/><ellipse cx="4173.3999" cy="3185.5" rx="3.4" ry="3.4" stroke-width="0" c_etype="pad_outer"/><ellipse cx="4173.3999" cy="3195.5" rx="3.4" ry="3.4" stroke-width="0" c_etype="pad_outer"/><ellipse cx="4173.3999" cy="3205.5" rx="3.4" ry="3.4" stroke-width="0" c_etype="pad_outer"/><ellipse cx="4203.3999" cy="3205.5" rx="3.4" ry="3.4" stroke-width="0" c_etype="pad_outer"/><ellipse cx="4203.3999" cy="3195.5" rx="3.4" ry="3.4" stroke-width="0" c_etype="pad_outer"/><ellipse cx="4203.3999" cy="3185.5" rx="3.4" ry="3.4" stroke-width="0" c_etype="pad_outer"/><ellipse cx="4203.3999" cy="3175.5" rx="3.4" ry="3.4" stroke-width="0" c_etype="pad_outer"/><ellipse cx="4089" cy="3206.9" rx="3.6999999999999997" ry="3.6999999999999997" stroke-width="0" c_etype="pad_outer"/><ellipse cx="4083.7" cy="3201.5" rx="3.6999999999999997" ry="3.6999999999999997" stroke-width="0" c_etype="pad_outer"/><ellipse cx="4084.4" cy="3246.5" rx="4.4" ry="4.4" stroke-width="0" c_etype="pad_outer"/><ellipse cx="4114.4" cy="3246.5" rx="4.4" ry="4.4" stroke-width="0" c_etype="pad_outer"/><ellipse cx="4195.5" cy="3104.5" rx="4.337" ry="4.337" stroke-width="0" c_etype="pad_outer"/><ellipse cx="4278" cy="3104.5" rx="4.337" ry="4.337" stroke-width="0" c_etype="pad_outer"/><ellipse cx="4085.5" cy="3104.5" rx="4.337" ry="4.337" stroke-width="0" c_etype="pad_outer"/><ellipse cx="4168" cy="3104.5" rx="4.337" ry="4.337" stroke-width="0" c_etype="pad_outer"/></g></mask><mask id="bottomBoardSolderMask" maskUnits="userSpaceOnUse" x="4050" y="3050" width="257" height="213"><path d="M4050 3263,4050 3050,4307 3050,4307 3263z" stroke="none" fill="white"/><g fill="black"><polygon points="4170 3178.9 4170 3172.1 4176.8 3172.1 4176.8 3178.9" stroke-width="0" c_etype="pad_outer"/><ellipse cx="4173.3999" cy="3185.5" rx="3.4" ry="3.4" stroke-width="0" c_etype="pad_outer"/><ellipse cx="4173.3999" cy="3195.5" rx="3.4" ry="3.4" stroke-width="0" c_etype="pad_outer"/><ellipse cx="4173.3999" cy="3205.5" rx="3.4" ry="3.4" stroke-width="0" c_etype="pad_outer"/><ellipse cx="4203.3999" cy="3205.5" rx="3.4" ry="3.4" stroke-width="0" c_etype="pad_outer"/><ellipse cx="4203.3999" cy="3195.5" rx="3.4" ry="3.4" stroke-width="0" c_etype="pad_outer"/><ellipse cx="4203.3999" cy="3185.5" rx="3.4" ry="3.4" stroke-width="0" c_etype="pad_outer"/><ellipse cx="4203.3999" cy="3175.5" rx="3.4" ry="3.4" stroke-width="0" c_etype="pad_outer"/><ellipse cx="4089" cy="3206.9" rx="3.6999999999999997" ry="3.6999999999999997" stroke-width="0" c_etype="pad_outer"/><ellipse cx="4083.7" cy="3201.5" rx="3.6999999999999997" ry="3.6999999999999997" stroke-width="0" c_etype="pad_outer"/><ellipse cx="4084.4" cy="3246.5" rx="4.4" ry="4.4" stroke-width="0" c_etype="pad_outer"/><ellipse cx="4114.4" cy="3246.5" rx="4.4" ry="4.4" stroke-width="0" c_etype="pad_outer"/><ellipse cx="4195.5" cy="3104.5" rx="4.337" ry="4.337" stroke-width="0" c_etype="pad_outer"/><ellipse cx="4278" cy="3104.5" rx="4.337" ry="4.337" stroke-width="0" c_etype="pad_outer"/><ellipse cx="4085.5" cy="3104.5" rx="4.337" ry="4.337" stroke-width="0" c_etype="pad_outer"/><ellipse cx="4168" cy="3104.5" rx="4.337" ry="4.337" stroke-width="0" c_etype="pad_outer"/></g></mask><mask id="bottomSignalSolderMask" maskUnits="userSpaceOnUse" x="4050" y="3050" width="257" height="213"><path d="M4050 3263,4050 3050,4307 3050,4307 3263z" stroke="none" fill="white"/><g fill="black"><polygon points="4170 3178.9 4170 3172.1 4176.8 3172.1 4176.8 3178.9" stroke-width="0" c_etype="pad_outer"/><ellipse cx="4173.3999" cy="3185.5" rx="3.4" ry="3.4" stroke-width="0" c_etype="pad_outer"/><ellipse cx="4173.3999" cy="3195.5" rx="3.4" ry="3.4" stroke-width="0" c_etype="pad_outer"/><ellipse cx="4173.3999" cy="3205.5" rx="3.4" ry="3.4" stroke-width="0" c_etype="pad_outer"/><ellipse cx="4203.3999" cy="3205.5" rx="3.4" ry="3.4" stroke-width="0" c_etype="pad_outer"/><ellipse cx="4203.3999" cy="3195.5" rx="3.4" ry="3.4" stroke-width="0" c_etype="pad_outer"/><ellipse cx="4203.3999" cy="3185.5" rx="3.4" ry="3.4" stroke-width="0" c_etype="pad_outer"/><ellipse cx="4203.3999" cy="3175.5" rx="3.4" ry="3.4" stroke-width="0" c_etype="pad_outer"/><ellipse cx="4089" cy="3206.9" rx="3.6999999999999997" ry="3.6999999999999997" stroke-width="0" c_etype="pad_outer"/><ellipse cx="4083.7" cy="3201.5" rx="3.6999999999999997" ry="3.6999999999999997" stroke-width="0" c_etype="pad_outer"/><ellipse cx="4084.4" cy="3246.5" rx="4.4" ry="4.4" stroke-width="0" c_etype="pad_outer"/><ellipse cx="4114.4" cy="3246.5" rx="4.4" ry="4.4" stroke-width="0" c_etype="pad_outer"/><ellipse cx="4195.5" cy="3104.5" rx="4.337" ry="4.337" stroke-width="0" c_etype="pad_outer"/><ellipse cx="4278" cy="3104.5" rx="4.337" ry="4.337" stroke-width="0" c_etype="pad_outer"/><ellipse cx="4085.5" cy="3104.5" rx="4.337" ry="4.337" stroke-width="0" c_etype="pad_outer"/><ellipse cx="4168" cy="3104.5" rx="4.337" ry="4.337" stroke-width="0" c_etype="pad_outer"/></g></mask></defs><g xmlns="http://www.w3.org/2000/svg" id="g1" mask="url(#multiLayerMask)" class="photoview"><g id="layer_other" class="shapeBox"><path d="M4050 3263,4050 3050,4307 3050,4307 3263z" stroke="none" id="boardOutlineReal" fill="#80785F"/><path d="M4050 3263,4050 3050,4307 3050,4307 3263z" stroke="none" id="topBoardSolderReal" mask="url(#topBoardSolderMask)" fill="#002966"/><g id="topSignalReal" fill="#DCAA14" stroke="#DCAA14"><g c_partid="part_pad" c_etype="pinpart" layerid="1" id="gge63_1" c_origin="4224.33,3179.5" net="" c_rotation="0" c_width="8.66" c_height="9.45"><polygon points="4220 3174.775 4228.66 3174.775 4228.66 3184.225 4220 3184.225" stroke-width="0"/></g><g c_partid="part_pad" c_etype="pinpart" layerid="1" id="gge68_1" c_origin="4243.73,3179.5" net="" c_rotation="0" c_width="8.66" c_height="9.45"><polygon points="4239.4 3174.775 4248.06 3174.775 4248.06 3184.225 4239.4 3184.225" stroke-width="0"/></g><g c_partid="part_pad" c_etype="pinpart" layerid="1" id="gge82_1" c_origin="4265.7,3174.5" net="" c_rotation="0" c_width="4" c_height="4.5"><polygon points="4263.7 3172.25 4267.7 3172.25 4267.7 3176.75 4263.7 3176.75" stroke-width="0"/></g><g c_partid="part_pad" c_etype="pinpart" layerid="1" id="gge87_1" c_origin="4269.2,3182.5" net="" c_rotation="0" c_width="4" c_height="4.5"><polygon points="4267.2 3180.25 4271.2 3180.25 4271.2 3184.75 4267.2 3184.75" stroke-width="0"/></g><g c_partid="part_pad" c_etype="pinpart" layerid="1" id="gge92_1" c_origin="4262.2,3182.5" net="" c_rotation="180" c_width="4" c_height="4.5"><polygon points="4264.2 3184.75 4260.2 3184.75 4260.2 3180.25 4264.2 3180.25" stroke-width="0"/></g><g c_partid="part_pad" c_etype="pinpart" layerid="1" id="gge115_1" c_origin="4149,3176.5" net="" c_rotation="0" c_width="10" c_height="9"><polygon points="4144 3172 4154 3172 4154 3181 4144 3181" stroke-width="0"/></g><g c_partid="part_pad" c_etype="pinpart" layerid="1" id="gge120_1" c_origin="4149,3219.5" net="" c_rotation="0" c_width="2" c_height="7"><polygon points="4148 3216 4150 3216 4150 3223 4148 3223" stroke-width="0"/></g><g c_partid="part_pad" c_etype="pinpart" layerid="1" id="gge125_1" c_origin="4144,3219.5" net="" c_rotation="0" c_width="2" c_height="7"><polygon points="4143 3216 4145 3216 4145 3223 4143 3223" stroke-width="0"/></g><g c_partid="part_pad" c_etype="pinpart" layerid="1" id="gge130_1" c_origin="4154,3219.5" net="" c_rotation="0" c_width="2" c_height="7"><polygon points="4153 3216 4155 3216 4155 3223 4153 3223" stroke-width="0"/></g><g c_partid="part_pad" c_etype="pinpart" layerid="11" id="gge9_11" c_origin="4173.3999,3175.5" net="" c_rotation="0" c_width="6" c_height="6"><polygon points="4170.3999 3172.5 4176.3999 3172.5 4176.3999 3178.5 4170.3999 3178.5" stroke-width="0" c_etype="pad_shell"/></g><g c_partid="part_pad" c_etype="pinpart" layerid="11" id="gge14_11" c_origin="4173.3999,3185.5" net="" c_rotation="0" c_width="6" c_height="6"><ellipse cx="4173.3999" cy="3185.5" rx="3" ry="3" stroke-width="0" c_etype="pad_shell"/></g><g c_partid="part_pad" c_etype="pinpart" layerid="11" id="gge19_11" c_origin="4173.3999,3195.5" net="" c_rotation="0" c_width="6" c_height="6"><ellipse cx="4173.3999" cy="3195.5" rx="3" ry="3" stroke-width="0" c_etype="pad_shell"/></g><g c_partid="part_pad" c_etype="pinpart" layerid="11" id="gge24_11" c_origin="4173.3999,3205.5" net="" c_rotation="0" c_width="6" c_height="6"><ellipse cx="4173.3999" cy="3205.5" rx="3" ry="3" stroke-width="0" c_etype="pad_shell"/></g><g c_partid="part_pad" c_etype="pinpart" layerid="11" id="gge29_11" c_origin="4203.3999,3205.5" net="" c_rotation="0" c_width="6" c_height="6"><ellipse cx="4203.3999" cy="3205.5" rx="3" ry="3" stroke-width="0" c_etype="pad_shell"/></g><g c_partid="part_pad" c_etype="pinpart" layerid="11" id="gge34_11" c_origin="4203.3999,3195.5" net="" c_rotation="0" c_width="6" c_height="6"><ellipse cx="4203.3999" cy="3195.5" rx="3" ry="3" stroke-width="0" c_etype="pad_shell"/></g><g c_partid="part_pad" c_etype="pinpart" layerid="11" id="gge39_11" c_origin="4203.3999,3185.5" net="" c_rotation="0" c_width="6" c_height="6"><ellipse cx="4203.3999" cy="3185.5" rx="3" ry="3" stroke-width="0" c_etype="pad_shell"/></g><g c_partid="part_pad" c_etype="pinpart" layerid="11" id="gge44_11" c_origin="4203.3999,3175.5" net="" c_rotation="0" c_width="6" c_height="6"><ellipse cx="4203.3999" cy="3175.5" rx="3" ry="3" stroke-width="0" c_etype="pad_shell"/></g><g c_partid="part_pad" c_etype="pinpart" layerid="11" id="gge149_11" c_origin="4089,3206.9" net="" c_rotation="0" c_width="6.6" c_height="6.6"><ellipse cx="4089" cy="3206.9" rx="3.3" ry="3.3" stroke-width="0" c_etype="pad_shell"/></g><g c_partid="part_pad" c_etype="pinpart" layerid="11" id="gge154_11" c_origin="4083.7,3201.5" net="" c_rotation="0" c_width="6.6" c_height="6.6"><ellipse cx="4083.7" cy="3201.5" rx="3.3" ry="3.3" stroke-width="0" c_etype="pad_shell"/></g><g c_partid="part_pad" c_etype="pinpart" layerid="11" id="gge173_11" c_origin="4084.4,3246.5" net="" c_rotation="0" c_width="8" c_height="8"><ellipse cx="4084.4" cy="3246.5" rx="4" ry="4" stroke-width="0" c_etype="pad_shell"/></g><g c_partid="part_pad" c_etype="pinpart" layerid="11" id="gge178_11" c_origin="4114.4,3246.5" net="" c_rotation="0" c_width="8" c_height="8"><ellipse cx="4114.4" cy="3246.5" rx="4" ry="4" stroke-width="0" c_etype="pad_shell"/></g><g c_partid="part_pad" c_etype="pinpart" layerid="11" id="gge191_11" c_origin="4195.5,3104.5" net="" c_rotation="0" c_width="7.874" c_height="7.874"><ellipse cx="4195.5" cy="3104.5" rx="3.937" ry="3.937" stroke-width="0" c_etype="pad_shell"/></g><g c_partid="part_pad" c_etype="pinpart" layerid="11" id="gge196_11" c_origin="4278,3104.5" net="" c_rotation="0" c_width="7.874" c_height="7.874"><ellipse cx="4278" cy="3104.5" rx="3.937" ry="3.937" stroke-width="0" c_etype="pad_shell"/></g><g c_partid="part_pad" c_etype="pinpart" layerid="11" id="gge209_11" c_origin="4085.5,3104.5" net="" c_rotation="0" c_width="7.874" c_height="7.874"><ellipse cx="4085.5" cy="3104.5" rx="3.937" ry="3.937" stroke-width="0" c_etype="pad_shell"/></g><g c_partid="part_pad" c_etype="pinpart" layerid="11" id="gge214_11" c_origin="4168,3104.5" net="" c_rotation="0" c_width="7.874" c_height="7.874"><ellipse cx="4168" cy="3104.5" rx="3.937" ry="3.937" stroke-width="0" c_etype="pad_shell"/></g></g><g id="topSignalSolderReal" mask="url(#topSignalSolderMask)" fill="#005CB6" stroke="#005CB6"><g c_partid="part_pad" c_etype="pinpart" layerid="1" id="gge63_1" c_origin="4224.33,3179.5" net="" c_rotation="0" c_width="8.66" c_height="9.45"><polygon points="4220 3174.775 4228.66 3174.775 4228.66 3184.225 4220 3184.225" stroke-width="0"/></g><g c_partid="part_pad" c_etype="pinpart" layerid="1" id="gge68_1" c_origin="4243.73,3179.5" net="" c_rotation="0" c_width="8.66" c_height="9.45"><polygon points="4239.4 3174.775 4248.06 3174.775 4248.06 3184.225 4239.4 3184.225" stroke-width="0"/></g><g c_partid="part_pad" c_etype="pinpart" layerid="1" id="gge82_1" c_origin="4265.7,3174.5" net="" c_rotation="0" c_width="4" c_height="4.5"><polygon points="4263.7 3172.25 4267.7 3172.25 4267.7 3176.75 4263.7 3176.75" stroke-width="0"/></g><g c_partid="part_pad" c_etype="pinpart" layerid="1" id="gge87_1" c_origin="4269.2,3182.5" net="" c_rotation="0" c_width="4" c_height="4.5"><polygon points="4267.2 3180.25 4271.2 3180.25 4271.2 3184.75 4267.2 3184.75" stroke-width="0"/></g><g c_partid="part_pad" c_etype="pinpart" layerid="1" id="gge92_1" c_origin="4262.2,3182.5" net="" c_rotation="180" c_width="4" c_height="4.5"><polygon points="4264.2 3184.75 4260.2 3184.75 4260.2 3180.25 4264.2 3180.25" stroke-width="0"/></g><g c_partid="part_pad" c_etype="pinpart" layerid="1" id="gge115_1" c_origin="4149,3176.5" net="" c_rotation="0" c_width="10" c_height="9"><polygon points="4144 3172 4154 3172 4154 3181 4144 3181" stroke-width="0"/></g><g c_partid="part_pad" c_etype="pinpart" layerid="1" id="gge120_1" c_origin="4149,3219.5" net="" c_rotation="0" c_width="2" c_height="7"><polygon points="4148 3216 4150 3216 4150 3223 4148 3223" stroke-width="0"/></g><g c_partid="part_pad" c_etype="pinpart" layerid="1" id="gge125_1" c_origin="4144,3219.5" net="" c_rotation="0" c_width="2" c_height="7"><polygon points="4143 3216 4145 3216 4145 3223 4143 3223" stroke-width="0"/></g><g c_partid="part_pad" c_etype="pinpart" layerid="1" id="gge130_1" c_origin="4154,3219.5" net="" c_rotation="0" c_width="2" c_height="7"><polygon points="4153 3216 4155 3216 4155 3223 4153 3223" stroke-width="0"/></g><g c_partid="part_pad" c_etype="pinpart" layerid="11" id="gge9_11" c_origin="4173.3999,3175.5" net="" c_rotation="0" c_width="6" c_height="6"><polygon points="4170.3999 3172.5 4176.3999 3172.5 4176.3999 3178.5 4170.3999 3178.5" stroke-width="0" c_etype="pad_shell"/></g><g c_partid="part_pad" c_etype="pinpart" layerid="11" id="gge14_11" c_origin="4173.3999,3185.5" net="" c_rotation="0" c_width="6" c_height="6"><ellipse cx="4173.3999" cy="3185.5" rx="3" ry="3" stroke-width="0" c_etype="pad_shell"/></g><g c_partid="part_pad" c_etype="pinpart" layerid="11" id="gge19_11" c_origin="4173.3999,3195.5" net="" c_rotation="0" c_width="6" c_height="6"><ellipse cx="4173.3999" cy="3195.5" rx="3" ry="3" stroke-width="0" c_etype="pad_shell"/></g><g c_partid="part_pad" c_etype="pinpart" layerid="11" id="gge24_11" c_origin="4173.3999,3205.5" net="" c_rotation="0" c_width="6" c_height="6"><ellipse cx="4173.3999" cy="3205.5" rx="3" ry="3" stroke-width="0" c_etype="pad_shell"/></g><g c_partid="part_pad" c_etype="pinpart" layerid="11" id="gge29_11" c_origin="4203.3999,3205.5" net="" c_rotation="0" c_width="6" c_height="6"><ellipse cx="4203.3999" cy="3205.5" rx="3" ry="3" stroke-width="0" c_etype="pad_shell"/></g><g c_partid="part_pad" c_etype="pinpart" layerid="11" id="gge34_11" c_origin="4203.3999,3195.5" net="" c_rotation="0" c_width="6" c_height="6"><ellipse cx="4203.3999" cy="3195.5" rx="3" ry="3" stroke-width="0" c_etype="pad_shell"/></g><g c_partid="part_pad" c_etype="pinpart" layerid="11" id="gge39_11" c_origin="4203.3999,3185.5" net="" c_rotation="0" c_width="6" c_height="6"><ellipse cx="4203.3999" cy="3185.5" rx="3" ry="3" stroke-width="0" c_etype="pad_shell"/></g><g c_partid="part_pad" c_etype="pinpart" layerid="11" id="gge44_11" c_origin="4203.3999,3175.5" net="" c_rotation="0" c_width="6" c_height="6"><ellipse cx="4203.3999" cy="3175.5" rx="3" ry="3" stroke-width="0" c_etype="pad_shell"/></g><g c_partid="part_pad" c_etype="pinpart" layerid="11" id="gge149_11" c_origin="4089,3206.9" net="" c_rotation="0" c_width="6.6" c_height="6.6"><ellipse cx="4089" cy="3206.9" rx="3.3" ry="3.3" stroke-width="0" c_etype="pad_shell"/></g><g c_partid="part_pad" c_etype="pinpart" layerid="11" id="gge154_11" c_origin="4083.7,3201.5" net="" c_rotation="0" c_width="6.6" c_height="6.6"><ellipse cx="4083.7" cy="3201.5" rx="3.3" ry="3.3" stroke-width="0" c_etype="pad_shell"/></g><g c_partid="part_pad" c_etype="pinpart" layerid="11" id="gge173_11" c_origin="4084.4,3246.5" net="" c_rotation="0" c_width="8" c_height="8"><ellipse cx="4084.4" cy="3246.5" rx="4" ry="4" stroke-width="0" c_etype="pad_shell"/></g><g c_partid="part_pad" c_etype="pinpart" layerid="11" id="gge178_11" c_origin="4114.4,3246.5" net="" c_rotation="0" c_width="8" c_height="8"><ellipse cx="4114.4" cy="3246.5" rx="4" ry="4" stroke-width="0" c_etype="pad_shell"/></g><g c_partid="part_pad" c_etype="pinpart" layerid="11" id="gge191_11" c_origin="4195.5,3104.5" net="" c_rotation="0" c_width="7.874" c_height="7.874"><ellipse cx="4195.5" cy="3104.5" rx="3.937" ry="3.937" stroke-width="0" c_etype="pad_shell"/></g><g c_partid="part_pad" c_etype="pinpart" layerid="11" id="gge196_11" c_origin="4278,3104.5" net="" c_rotation="0" c_width="7.874" c_height="7.874"><ellipse cx="4278" cy="3104.5" rx="3.937" ry="3.937" stroke-width="0" c_etype="pad_shell"/></g><g c_partid="part_pad" c_etype="pinpart" layerid="11" id="gge209_11" c_origin="4085.5,3104.5" net="" c_rotation="0" c_width="7.874" c_height="7.874"><ellipse cx="4085.5" cy="3104.5" rx="3.937" ry="3.937" stroke-width="0" c_etype="pad_shell"/></g><g c_partid="part_pad" c_etype="pinpart" layerid="11" id="gge214_11" c_origin="4168,3104.5" net="" c_rotation="0" c_width="7.874" c_height="7.874"><ellipse cx="4168" cy="3104.5" rx="3.937" ry="3.937" stroke-width="0" c_etype="pad_shell"/></g></g><g id="topSilkLayer" fill="#FFFFFF" stroke="#FFFFFF"><polyline points="4191.3999 3174.5 4191.3999 3174.5 4198.3999 3174.5 4198.3999 3206.5 4178.3999 3206.5 4178.3999 3174.5 4185.3999 3174.5 4185.3999 3174.5" stroke-width="1" c_shapetype="line" stroke-linecap="round" fill="none" layerid="3" net="" id="gge7_3" locked="0"/><polyline points="4225.13 3172 4242.93 3172" stroke-width="1" c_shapetype="line" stroke-linecap="round" fill="none" layerid="3" net="" id="gge55_3" locked="0"/><polyline points="4225.13 3187 4242.93 3187" stroke-width="1" c_shapetype="line" stroke-linecap="round" fill="none" layerid="3" net="" id="gge56_3" locked="0"/><polyline points="4236.53 3175.6 4231.13 3179.5" stroke-width="1" c_shapetype="line" stroke-linecap="round" fill="none" layerid="3" net="" id="gge57_3" locked="0"/><polyline points="4231.13 3179.5 4236.53 3183.4" stroke-width="1" c_shapetype="line" stroke-linecap="round" fill="none" layerid="3" net="" id="gge58_3" locked="0"/><polyline points="4236.53 3183.4 4236.53 3175.6" stroke-width="1" c_shapetype="line" stroke-linecap="round" fill="none" layerid="3" net="" id="gge59_3" locked="0"/><polyline points="4231.13 3175.6 4231.13 3183.4" stroke-width="1" c_shapetype="line" stroke-linecap="round" fill="none" layerid="3" net="" id="gge60_3" locked="0"/><polyline points="4265 3181 4266.4 3181" stroke-width="1" c_shapetype="line" stroke-linecap="round" fill="none" layerid="3" net="" id="gge79_3" locked="0"/><polyline points="4271.4 3179.5 4271.4 3176 4268.4 3176" stroke-width="1" c_shapetype="line" stroke-linecap="round" fill="none" layerid="3" net="" id="gge80_3" locked="0"/><polyline points="4263 3176 4260 3176 4260 3179.5" stroke-width="1" c_shapetype="line" stroke-linecap="round" fill="none" layerid="3" net="" id="gge81_3" locked="0"/><polyline points="4140 3184 4140 3181" stroke-width="1" c_shapetype="line" stroke-linecap="round" fill="none" layerid="3" net="" id="gge103_3" locked="0"/><polyline points="4140 3181 4142.5 3181" stroke-width="1" c_shapetype="line" stroke-linecap="round" fill="none" layerid="3" net="" id="gge104_3" locked="0"/><polyline points="4157.5 3184 4157.5 3181" stroke-width="1" c_shapetype="line" stroke-linecap="round" fill="none" layerid="3" net="" id="gge105_3" locked="0"/><polyline points="4157.5 3181 4155.5 3181" stroke-width="1" c_shapetype="line" stroke-linecap="round" fill="none" layerid="3" net="" id="gge106_3" locked="0"/><polyline points="4140.5 3213.5 4140.5 3216" stroke-width="1" c_shapetype="line" stroke-linecap="round" fill="none" layerid="3" net="" id="gge107_3" locked="0"/><polyline points="4140.5 3216 4142 3216" stroke-width="1" c_shapetype="line" stroke-linecap="round" fill="none" layerid="3" net="" id="gge108_3" locked="0"/><polyline points="4156 3216 4157.5 3216" stroke-width="1" c_shapetype="line" stroke-linecap="round" fill="none" layerid="3" net="" id="gge109_3" locked="0"/><polyline points="4157.5 3216 4157.5 3213.5" stroke-width="1" c_shapetype="line" stroke-linecap="round" fill="none" layerid="3" net="" id="gge110_3" locked="0"/><polyline points="4089.4 3241.5 4109.4 3241.5" stroke-width="1" c_shapetype="line" stroke-linecap="round" fill="none" layerid="3" net="" id="gge165_3" locked="0"/><polyline points="4109.4 3241.5 4109.4 3246.5" stroke-width="1" c_shapetype="line" stroke-linecap="round" fill="none" layerid="3" net="" id="gge166_3" locked="0"/><polyline points="4109.4 3246.5 4109.4 3251.5" stroke-width="1" c_shapetype="line" stroke-linecap="round" fill="none" layerid="3" net="" id="gge167_3" locked="0"/><polyline points="4109.4 3251.5 4089.4 3251.5" stroke-width="1" c_shapetype="line" stroke-linecap="round" fill="none" layerid="3" net="" id="gge168_3" locked="0"/><polyline points="4089.4 3251.5 4089.4 3246.5" stroke-width="1" c_shapetype="line" stroke-linecap="round" fill="none" layerid="3" net="" id="gge169_3" locked="0"/><polyline points="4089.4 3246.5 4089.4 3241.5" stroke-width="1" c_shapetype="line" stroke-linecap="round" fill="none" layerid="3" net="" id="gge170_3" locked="0"/><polyline points="4109.4 3246.5 4110.4 3246.5" stroke-width="1" c_shapetype="line" stroke-linecap="round" fill="none" layerid="3" net="" id="gge171_3" locked="0"/><polyline points="4089.4 3246.5 4088.4 3246.5" stroke-width="1" c_shapetype="line" stroke-linecap="round" fill="none" layerid="3" net="" id="gge172_3" locked="0"/><polyline points="4204.5 3116 4190 3116 4190 3093.5 4190.2072 3093 4204 3093" stroke-width="0.7874" c_shapetype="line" stroke-linecap="round" fill="none" layerid="3" net="" id="gge190_3" locked="0"/><polyline points="4094.5 3116 4080 3116 4080 3093.5 4080.2072 3093 4094 3093" stroke-width="0.7874" c_shapetype="line" stroke-linecap="round" fill="none" layerid="3" net="" id="gge208_3" locked="0"/><g c_partid="part_pcbtext" c_etype="" c_origin="4188.3999,3163.5" c_rotation="0" c_mirror="" id="gge3_3" locked="0" layerid="3" c_shapetype="group" display="none"><path c_fontsize="4.5" c_fontfamily="" c_text="ATTINY85 (THT)" d="M 4190.0399 3158.96 L 4188.3999 3163.25 M 4190.0399 3158.96 L 4191.6699 3163.25 M 4189.0099 3161.82 L 4191.0599 3161.82 M 4194.4499 3158.96 L 4194.4499 3163.25 M 4193.0199 3158.96 L 4195.8899 3158.96 M 4198.6699 3158.96 L 4198.6699 3163.25 M 4197.2399 3158.96 L 4200.0999 3158.96 M 4201.4499 3158.96 L 4201.4499 3163.25 M 4202.7999 3158.96 L 4202.7999 3163.25 M 4202.7999 3158.96 L 4205.6599 3163.25 M 4205.6599 3158.96 L 4205.6599 3163.25 M 4207.0099 3158.96 L 4208.6499 3161 L 4208.6499 3163.25 M 4210.2899 3158.96 L 4208.6499 3161 M 4212.6599 3158.96 L 4212.0499 3159.16 L 4211.8399 3159.57 L 4211.8399 3159.98 L 4212.0499 3160.39 L 4212.4499 3160.6 L 4213.2699 3160.8 L 4213.8899 3161 L 4214.2999 3161.41 L 4214.4999 3161.82 L 4214.4999 3162.44 L 4214.2999 3162.85 L 4214.0899 3163.05 L 4213.4799 3163.25 L 4212.6599 3163.25 L 4212.0499 3163.05 L 4211.8399 3162.85 L 4211.6399 3162.44 L 4211.6399 3161.82 L 4211.8399 3161.41 L 4212.2499 3161 L 4212.8599 3160.8 L 4213.6799 3160.6 L 4214.0899 3160.39 L 4214.2999 3159.98 L 4214.2999 3159.57 L 4214.0899 3159.16 L 4213.4799 3158.96 L 4212.6599 3158.96 M 4218.2999 3158.96 L 4216.2599 3158.96 L 4216.0499 3160.8 L 4216.2599 3160.6 L 4216.8699 3160.39 L 4217.4899 3160.39 L 4218.0999 3160.6 L 4218.5099 3161 L 4218.7099 3161.62 L 4218.7099 3162.03 L 4218.5099 3162.64 L 4218.0999 3163.05 L 4217.4899 3163.25 L 4216.8699 3163.25 L 4216.2599 3163.05 L 4216.0499 3162.85 L 4215.8499 3162.44 M 4224.6499 3158.14 L 4224.2399 3158.55 L 4223.8299 3159.16 L 4223.4199 3159.98 L 4223.2099 3161 L 4223.2099 3161.82 L 4223.4199 3162.85 L 4223.8299 3163.66 L 4224.2399 3164.28 L 4224.6499 3164.69 M 4227.4299 3158.96 L 4227.4299 3163.25 M 4225.9999 3158.96 L 4228.8599 3158.96 M 4230.2099 3158.96 L 4230.2099 3163.25 M 4233.0699 3158.96 L 4233.0699 3163.25 M 4230.2099 3161 L 4233.0699 3161 M 4235.8499 3158.96 L 4235.8499 3163.25 M 4234.4199 3158.96 L 4237.2899 3158.96 M 4238.6399 3158.14 L 4239.0499 3158.55 L 4239.4499 3159.16 L 4239.8599 3159.98 L 4240.0699 3161 L 4240.0699 3161.82 L 4239.8599 3162.85 L 4239.4499 3163.66 L 4239.0499 3164.28 L 4238.6399 3164.69" fill="none" stroke-width="0.6" c_note="note_name" style=""/></g><g c_partid="part_pcbtext" c_etype="" c_origin="4188.3999,3170.5" c_rotation="0" c_mirror="" id="gge5_3" locked="0" layerid="3" c_shapetype="group"><path c_fontsize="4.5" c_fontfamily="" c_text="U3" d="M 4188.3999 3165.96 L 4188.3999 3169.03 L 4188.5999 3169.64 L 4189.0099 3170.05 L 4189.6299 3170.25 L 4190.0399 3170.25 L 4190.6499 3170.05 L 4191.0599 3169.64 L 4191.2599 3169.03 L 4191.2599 3165.96 M 4193.0199 3165.96 L 4195.2699 3165.96 L 4194.0499 3167.6 L 4194.6599 3167.6 L 4195.0699 3167.8 L 4195.2699 3168 L 4195.4799 3168.62 L 4195.4799 3169.03 L 4195.2699 3169.64 L 4194.8599 3170.05 L 4194.2499 3170.25 L 4193.6399 3170.25 L 4193.0199 3170.05 L 4192.8199 3169.85 L 4192.6099 3169.44" fill="none" stroke-width="0.6" c_note="note_pre" style=""/></g><g c_partid="part_pcbtext" c_etype="" c_origin="4234.03,3163.5" c_rotation="0" c_mirror="" id="gge51_3" locked="0" layerid="3" c_shapetype="group" display="none"><path c_fontsize="4.5" c_fontfamily="" c_text="DIODE" d="M 4234.03 3158.96 L 4234.03 3163.25 M 4234.03 3158.96 L 4235.46 3158.96 L 4236.08 3159.16 L 4236.48 3159.57 L 4236.69 3159.98 L 4236.89 3160.6 L 4236.89 3161.62 L 4236.69 3162.23 L 4236.48 3162.64 L 4236.08 3163.05 L 4235.46 3163.25 L 4234.03 3163.25 M 4238.24 3158.96 L 4238.24 3163.25 M 4240.82 3158.96 L 4240.41 3159.16 L 4240 3159.57 L 4239.8 3159.98 L 4239.59 3160.6 L 4239.59 3161.62 L 4239.8 3162.23 L 4240 3162.64 L 4240.41 3163.05 L 4240.82 3163.25 L 4241.64 3163.25 L 4242.05 3163.05 L 4242.46 3162.64 L 4242.66 3162.23 L 4242.87 3161.62 L 4242.87 3160.6 L 4242.66 3159.98 L 4242.46 3159.57 L 4242.05 3159.16 L 4241.64 3158.96 L 4240.82 3158.96 M 4244.22 3158.96 L 4244.22 3163.25 M 4244.22 3158.96 L 4245.65 3158.96 L 4246.26 3159.16 L 4246.67 3159.57 L 4246.88 3159.98 L 4247.08 3160.6 L 4247.08 3161.62 L 4246.88 3162.23 L 4246.67 3162.64 L 4246.26 3163.05 L 4245.65 3163.25 L 4244.22 3163.25 M 4248.43 3158.96 L 4248.43 3163.25 M 4248.43 3158.96 L 4251.09 3158.96 M 4248.43 3161 L 4250.07 3161 M 4248.43 3163.25 L 4251.09 3163.25" fill="none" stroke-width="0.6" c_note="note_name" style=""/></g><g c_partid="part_pcbtext" c_etype="" c_origin="4234.03,3170.5" c_rotation="0" c_mirror="" id="gge53_3" locked="0" layerid="3" c_shapetype="group"><path c_fontsize="4.5" c_fontfamily="" c_text="D1" d="M 4234.03 3165.96 L 4234.03 3170.25 M 4234.03 3165.96 L 4235.46 3165.96 L 4236.08 3166.16 L 4236.48 3166.57 L 4236.69 3166.98 L 4236.89 3167.6 L 4236.89 3168.62 L 4236.69 3169.23 L 4236.48 3169.64 L 4236.08 3170.05 L 4235.46 3170.25 L 4234.03 3170.25 M 4238.24 3166.78 L 4238.65 3166.57 L 4239.27 3165.96 L 4239.27 3170.25" fill="none" stroke-width="0.6" c_note="note_pre" style=""/></g><g c_partid="part_pcbtext" c_etype="" c_origin="4265.7,3163.5" c_rotation="0" c_mirror="" id="gge75_3" locked="0" layerid="3" c_shapetype="group" display="none"><path c_fontsize="4.5" c_fontfamily="" c_text="Transistor" d="M 4267.13 3158.96 L 4267.13 3163.25 M 4265.7 3158.96 L 4268.56 3158.96 M 4269.91 3160.39 L 4269.91 3163.25 M 4269.91 3161.62 L 4270.12 3161 L 4270.53 3160.6 L 4270.94 3160.39 L 4271.55 3160.39 M 4275.35 3160.39 L 4275.35 3163.25 M 4275.35 3161 L 4274.95 3160.6 L 4274.54 3160.39 L 4273.92 3160.39 L 4273.51 3160.6 L 4273.1 3161 L 4272.9 3161.62 L 4272.9 3162.03 L 4273.1 3162.64 L 4273.51 3163.05 L 4273.92 3163.25 L 4274.54 3163.25 L 4274.95 3163.05 L 4275.35 3162.64 M 4276.7 3160.39 L 4276.7 3163.25 M 4276.7 3161.21 L 4277.32 3160.6 L 4277.73 3160.39 L 4278.34 3160.39 L 4278.75 3160.6 L 4278.95 3161.21 L 4278.95 3163.25 M 4282.55 3161 L 4282.35 3160.6 L 4281.74 3160.39 L 4281.12 3160.39 L 4280.51 3160.6 L 4280.3 3161 L 4280.51 3161.41 L 4280.92 3161.62 L 4281.94 3161.82 L 4282.35 3162.03 L 4282.55 3162.44 L 4282.55 3162.64 L 4282.35 3163.05 L 4281.74 3163.25 L 4281.12 3163.25 L 4280.51 3163.05 L 4280.3 3162.64 M 4283.9 3158.96 L 4284.11 3159.16 L 4284.31 3158.96 L 4284.11 3158.75 L 4283.9 3158.96 M 4284.11 3160.39 L 4284.11 3163.25 M 4287.91 3161 L 4287.71 3160.6 L 4287.1 3160.39 L 4286.48 3160.39 L 4285.87 3160.6 L 4285.66 3161 L 4285.87 3161.41 L 4286.28 3161.62 L 4287.3 3161.82 L 4287.71 3162.03 L 4287.91 3162.44 L 4287.91 3162.64 L 4287.71 3163.05 L 4287.1 3163.25 L 4286.48 3163.25 L 4285.87 3163.05 L 4285.66 3162.64 M 4289.88 3158.96 L 4289.88 3162.44 L 4290.08 3163.05 L 4290.49 3163.25 L 4290.9 3163.25 M 4289.26 3160.39 L 4290.7 3160.39 M 4293.27 3160.39 L 4292.86 3160.6 L 4292.45 3161 L 4292.25 3161.62 L 4292.25 3162.03 L 4292.45 3162.64 L 4292.86 3163.05 L 4293.27 3163.25 L 4293.89 3163.25 L 4294.3 3163.05 L 4294.7 3162.64 L 4294.91 3162.03 L 4294.91 3161.62 L 4294.7 3161 L 4294.3 3160.6 L 4293.89 3160.39 L 4293.27 3160.39 M 4296.26 3160.39 L 4296.26 3163.25 M 4296.26 3161.62 L 4296.46 3161 L 4296.87 3160.6 L 4297.28 3160.39 L 4297.9 3160.39" fill="none" stroke-width="0.6" c_note="note_name" style=""/></g><g c_partid="part_pcbtext" c_etype="" c_origin="4265.7,3170.5" c_rotation="0" c_mirror="" id="gge77_3" locked="0" layerid="3" c_shapetype="group"><path c_fontsize="4.5" c_fontfamily="" c_text="Q1" d="M 4266.93 3165.96 L 4266.52 3166.16 L 4266.11 3166.57 L 4265.9 3166.98 L 4265.7 3167.6 L 4265.7 3168.62 L 4265.9 3169.23 L 4266.11 3169.64 L 4266.52 3170.05 L 4266.93 3170.25 L 4267.75 3170.25 L 4268.15 3170.05 L 4268.56 3169.64 L 4268.77 3169.23 L 4268.97 3168.62 L 4268.97 3167.6 L 4268.77 3166.98 L 4268.56 3166.57 L 4268.15 3166.16 L 4267.75 3165.96 L 4266.93 3165.96 M 4267.54 3169.44 L 4268.77 3170.66 M 4270.32 3166.78 L 4270.73 3166.57 L 4271.35 3165.96 L 4271.35 3170.25" fill="none" stroke-width="0.6" c_note="note_pre" style=""/></g><g c_partid="part_pcbtext" c_etype="" c_origin="4148,3163.5" c_rotation="0" c_mirror="" id="gge99_3" locked="0" layerid="3" c_shapetype="group" display="none"><path c_fontsize="4.5" c_fontfamily="" c_text="HIH-4030SMD" d="M 4148 3158.96 L 4148 3163.25 M 4150.86 3158.96 L 4150.86 3163.25 M 4148 3161 L 4150.86 3161 M 4152.21 3158.96 L 4152.21 3163.25 M 4153.56 3158.96 L 4153.56 3163.25 M 4156.43 3158.96 L 4156.43 3163.25 M 4153.56 3161 L 4156.43 3161 M 4157.78 3161.41 L 4161.46 3161.41 M 4164.85 3158.96 L 4162.81 3161.82 L 4165.88 3161.82 M 4164.85 3158.96 L 4164.85 3163.25 M 4168.45 3158.96 L 4167.84 3159.16 L 4167.43 3159.78 L 4167.23 3160.8 L 4167.23 3161.41 L 4167.43 3162.44 L 4167.84 3163.05 L 4168.45 3163.25 L 4168.86 3163.25 L 4169.48 3163.05 L 4169.89 3162.44 L 4170.09 3161.41 L 4170.09 3160.8 L 4169.89 3159.78 L 4169.48 3159.16 L 4168.86 3158.96 L 4168.45 3158.96 M 4171.85 3158.96 L 4174.1 3158.96 L 4172.87 3160.6 L 4173.49 3160.6 L 4173.9 3160.8 L 4174.1 3161 L 4174.3 3161.62 L 4174.3 3162.03 L 4174.1 3162.64 L 4173.69 3163.05 L 4173.08 3163.25 L 4172.46 3163.25 L 4171.85 3163.05 L 4171.65 3162.85 L 4171.44 3162.44 M 4176.88 3158.96 L 4176.27 3159.16 L 4175.86 3159.78 L 4175.65 3160.8 L 4175.65 3161.41 L 4175.86 3162.44 L 4176.27 3163.05 L 4176.88 3163.25 L 4177.29 3163.25 L 4177.9 3163.05 L 4178.31 3162.44 L 4178.52 3161.41 L 4178.52 3160.8 L 4178.31 3159.78 L 4177.9 3159.16 L 4177.29 3158.96 L 4176.88 3158.96 M 4182.73 3159.57 L 4182.32 3159.16 L 4181.71 3158.96 L 4180.89 3158.96 L 4180.28 3159.16 L 4179.87 3159.57 L 4179.87 3159.98 L 4180.07 3160.39 L 4180.28 3160.6 L 4180.69 3160.8 L 4181.91 3161.21 L 4182.32 3161.41 L 4182.53 3161.62 L 4182.73 3162.03 L 4182.73 3162.64 L 4182.32 3163.05 L 4181.71 3163.25 L 4180.89 3163.25 L 4180.28 3163.05 L 4179.87 3162.64 M 4184.08 3158.96 L 4184.08 3163.25 M 4184.08 3158.96 L 4185.72 3163.25 M 4187.35 3158.96 L 4185.72 3163.25 M 4187.35 3158.96 L 4187.35 3163.25 M 4188.7 3158.96 L 4188.7 3163.25 M 4188.7 3158.96 L 4190.14 3158.96 L 4190.75 3159.16 L 4191.16 3159.57 L 4191.36 3159.98 L 4191.57 3160.6 L 4191.57 3161.62 L 4191.36 3162.23 L 4191.16 3162.64 L 4190.75 3163.05 L 4190.14 3163.25 L 4188.7 3163.25" fill="none" stroke-width="0.6" c_note="note_name" style=""/></g><g c_partid="part_pcbtext" c_etype="" c_origin="4148,3170.5" c_rotation="0" c_mirror="" id="gge101_3" locked="0" layerid="3" c_shapetype="group"><path c_fontsize="4.5" c_fontfamily="" c_text="U5" d="M 4148 3165.96 L 4148 3169.03 L 4148.2 3169.64 L 4148.61 3170.05 L 4149.23 3170.25 L 4149.64 3170.25 L 4150.25 3170.05 L 4150.66 3169.64 L 4150.86 3169.03 L 4150.86 3165.96 M 4154.67 3165.96 L 4152.62 3165.96 L 4152.42 3167.8 L 4152.62 3167.6 L 4153.24 3167.39 L 4153.85 3167.39 L 4154.46 3167.6 L 4154.87 3168 L 4155.08 3168.62 L 4155.08 3169.03 L 4154.87 3169.64 L 4154.46 3170.05 L 4153.85 3170.25 L 4153.24 3170.25 L 4152.62 3170.05 L 4152.42 3169.85 L 4152.21 3169.44" fill="none" stroke-width="0.6" c_note="note_pre" style=""/></g><g c_partid="part_pcbtext" c_etype="" c_origin="4103.7,3163.5" c_rotation="0" c_mirror="" id="gge137_3" locked="0" layerid="3" c_shapetype="group" display="none"><path c_fontsize="4.5" c_fontfamily="" c_text="MOTOR" d="M 4103.7 3158.96 L 4103.7 3163.25 M 4103.7 3158.96 L 4105.34 3163.25 M 4106.97 3158.96 L 4105.34 3163.25 M 4106.97 3158.96 L 4106.97 3163.25 M 4109.55 3158.96 L 4109.14 3159.16 L 4108.73 3159.57 L 4108.53 3159.98 L 4108.32 3160.6 L 4108.32 3161.62 L 4108.53 3162.23 L 4108.73 3162.64 L 4109.14 3163.05 L 4109.55 3163.25 L 4110.37 3163.25 L 4110.78 3163.05 L 4111.19 3162.64 L 4111.39 3162.23 L 4111.6 3161.62 L 4111.6 3160.6 L 4111.39 3159.98 L 4111.19 3159.57 L 4110.78 3159.16 L 4110.37 3158.96 L 4109.55 3158.96 M 4114.38 3158.96 L 4114.38 3163.25 M 4112.95 3158.96 L 4115.81 3158.96 M 4118.39 3158.96 L 4117.98 3159.16 L 4117.57 3159.57 L 4117.36 3159.98 L 4117.16 3160.6 L 4117.16 3161.62 L 4117.36 3162.23 L 4117.57 3162.64 L 4117.98 3163.05 L 4118.39 3163.25 L 4119.2 3163.25 L 4119.61 3163.05 L 4120.02 3162.64 L 4120.23 3162.23 L 4120.43 3161.62 L 4120.43 3160.6 L 4120.23 3159.98 L 4120.02 3159.57 L 4119.61 3159.16 L 4119.2 3158.96 L 4118.39 3158.96 M 4121.78 3158.96 L 4121.78 3163.25 M 4121.78 3158.96 L 4123.62 3158.96 L 4124.24 3159.16 L 4124.44 3159.37 L 4124.65 3159.78 L 4124.65 3160.19 L 4124.44 3160.6 L 4124.24 3160.8 L 4123.62 3161 L 4121.78 3161 M 4123.21 3161 L 4124.65 3163.25" fill="none" stroke-width="0.6" c_note="note_name" style=""/></g><g c_partid="part_pcbtext" c_etype="" c_origin="4103.7,3170.5" c_rotation="0" c_mirror="" id="gge139_3" locked="0" layerid="3" c_shapetype="group"><path c_fontsize="4.5" c_fontfamily="" c_text="U6" d="M 4103.7 3165.96 L 4103.7 3169.03 L 4103.9 3169.64 L 4104.31 3170.05 L 4104.93 3170.25 L 4105.34 3170.25 L 4105.95 3170.05 L 4106.36 3169.64 L 4106.56 3169.03 L 4106.56 3165.96 M 4110.37 3166.57 L 4110.16 3166.16 L 4109.55 3165.96 L 4109.14 3165.96 L 4108.53 3166.16 L 4108.12 3166.78 L 4107.91 3167.8 L 4107.91 3168.82 L 4108.12 3169.64 L 4108.53 3170.05 L 4109.14 3170.25 L 4109.35 3170.25 L 4109.96 3170.05 L 4110.37 3169.64 L 4110.57 3169.03 L 4110.57 3168.82 L 4110.37 3168.21 L 4109.96 3167.8 L 4109.35 3167.6 L 4109.14 3167.6 L 4108.53 3167.8 L 4108.12 3168.21 L 4107.91 3168.82" fill="none" stroke-width="0.6" c_note="note_pre" style=""/></g><g c_partid="part_pcbtext" c_etype="" c_origin="4081.9,3199.4" c_rotation="0" c_mirror="0" id="gge141_3" locked="0" layerid="3" c_shapetype="group"><path c_fontsize="3" c_fontfamily="" c_text="-" d="M 4081.9 3199.4 L 4084.35 3199.4" fill="none" stroke-width="0.6"/></g><g c_partid="part_pcbtext" c_etype="" c_origin="4090.2,3212.4" c_rotation="0" c_mirror="0" id="gge143_3" locked="0" layerid="3" c_shapetype="group"><path c_fontsize="3" c_fontfamily="" c_text="+" d="M 4091.43 3211.17 L 4091.43 3213.63 M 4090.2 3212.4 L 4092.65 3212.4" fill="none" stroke-width="0.6"/></g><g c_partid="part_pcbtext" c_etype="" c_origin="4099.4,3233.5" c_rotation="0" c_mirror="" id="gge161_3" locked="0" layerid="3" c_shapetype="group" display="none"><path c_fontsize="4.5" c_fontfamily="" c_text="220OHM" d="M 4099.6 3229.98 L 4099.6 3229.78 L 4099.81 3229.37 L 4100.01 3229.16 L 4100.42 3228.96 L 4101.24 3228.96 L 4101.65 3229.16 L 4101.85 3229.37 L 4102.06 3229.78 L 4102.06 3230.19 L 4101.85 3230.6 L 4101.45 3231.21 L 4099.4 3233.25 L 4102.26 3233.25 M 4103.82 3229.98 L 4103.82 3229.78 L 4104.02 3229.37 L 4104.23 3229.16 L 4104.64 3228.96 L 4105.45 3228.96 L 4105.86 3229.16 L 4106.07 3229.37 L 4106.27 3229.78 L 4106.27 3230.19 L 4106.07 3230.6 L 4105.66 3231.21 L 4103.61 3233.25 L 4106.48 3233.25 M 4109.05 3228.96 L 4108.44 3229.16 L 4108.03 3229.78 L 4107.83 3230.8 L 4107.83 3231.41 L 4108.03 3232.44 L 4108.44 3233.05 L 4109.05 3233.25 L 4109.46 3233.25 L 4110.08 3233.05 L 4110.49 3232.44 L 4110.69 3231.41 L 4110.69 3230.8 L 4110.49 3229.78 L 4110.08 3229.16 L 4109.46 3228.96 L 4109.05 3228.96 M 4113.27 3228.96 L 4112.86 3229.16 L 4112.45 3229.57 L 4112.25 3229.98 L 4112.04 3230.6 L 4112.04 3231.62 L 4112.25 3232.23 L 4112.45 3232.64 L 4112.86 3233.05 L 4113.27 3233.25 L 4114.09 3233.25 L 4114.5 3233.05 L 4114.9 3232.64 L 4115.11 3232.23 L 4115.31 3231.62 L 4115.31 3230.6 L 4115.11 3229.98 L 4114.9 3229.57 L 4114.5 3229.16 L 4114.09 3228.96 L 4113.27 3228.96 M 4116.66 3228.96 L 4116.66 3233.25 M 4119.53 3228.96 L 4119.53 3233.25 M 4116.66 3231 L 4119.53 3231 M 4120.88 3228.96 L 4120.88 3233.25 M 4120.88 3228.96 L 4122.51 3233.25 M 4124.15 3228.96 L 4122.51 3233.25 M 4124.15 3228.96 L 4124.15 3233.25" fill="none" stroke-width="0.6" c_note="note_name" style=""/></g><g c_partid="part_pcbtext" c_etype="" c_origin="4099.4,3240.5" c_rotation="0" c_mirror="" id="gge163_3" locked="0" layerid="3" c_shapetype="group"><path c_fontsize="4.5" c_fontfamily="" c_text="R6" d="M 4099.4 3235.96 L 4099.4 3240.25 M 4099.4 3235.96 L 4101.24 3235.96 L 4101.85 3236.16 L 4102.06 3236.37 L 4102.26 3236.78 L 4102.26 3237.19 L 4102.06 3237.6 L 4101.85 3237.8 L 4101.24 3238 L 4099.4 3238 M 4100.83 3238 L 4102.26 3240.25 M 4106.07 3236.57 L 4105.86 3236.16 L 4105.25 3235.96 L 4104.84 3235.96 L 4104.23 3236.16 L 4103.82 3236.78 L 4103.61 3237.8 L 4103.61 3238.82 L 4103.82 3239.64 L 4104.23 3240.05 L 4104.84 3240.25 L 4105.05 3240.25 L 4105.66 3240.05 L 4106.07 3239.64 L 4106.27 3239.03 L 4106.27 3238.82 L 4106.07 3238.21 L 4105.66 3237.8 L 4105.05 3237.6 L 4104.84 3237.6 L 4104.23 3237.8 L 4103.82 3238.21 L 4103.61 3238.82" fill="none" stroke-width="0.6" c_note="note_pre" style=""/></g><g c_partid="part_pcbtext" c_etype="" c_origin="4239.25,3053.5" c_rotation="0" c_mirror="" id="gge185_3" locked="0" layerid="3" c_shapetype="group" display="none"><path c_fontsize="4.5" c_fontfamily="" c_text="CR2032 BATTERY HOLDER (THT)" d="M 4242.32 3049.98 L 4242.11 3049.57 L 4241.7 3049.16 L 4241.3 3048.96 L 4240.48 3048.96 L 4240.07 3049.16 L 4239.66 3049.57 L 4239.45 3049.98 L 4239.25 3050.6 L 4239.25 3051.62 L 4239.45 3052.23 L 4239.66 3052.64 L 4240.07 3053.05 L 4240.48 3053.25 L 4241.3 3053.25 L 4241.7 3053.05 L 4242.11 3052.64 L 4242.32 3052.23 M 4243.67 3048.96 L 4243.67 3053.25 M 4243.67 3048.96 L 4245.51 3048.96 L 4246.12 3049.16 L 4246.33 3049.37 L 4246.53 3049.78 L 4246.53 3050.19 L 4246.33 3050.6 L 4246.12 3050.8 L 4245.51 3051 L 4243.67 3051 M 4245.1 3051 L 4246.53 3053.25 M 4248.09 3049.98 L 4248.09 3049.78 L 4248.29 3049.37 L 4248.5 3049.16 L 4248.9 3048.96 L 4249.72 3048.96 L 4250.13 3049.16 L 4250.34 3049.37 L 4250.54 3049.78 L 4250.54 3050.19 L 4250.34 3050.6 L 4249.93 3051.21 L 4247.88 3053.25 L 4250.75 3053.25 M 4253.32 3048.96 L 4252.71 3049.16 L 4252.3 3049.78 L 4252.1 3050.8 L 4252.1 3051.41 L 4252.3 3052.44 L 4252.71 3053.05 L 4253.32 3053.25 L 4253.73 3053.25 L 4254.35 3053.05 L 4254.75 3052.44 L 4254.96 3051.41 L 4254.96 3050.8 L 4254.75 3049.78 L 4254.35 3049.16 L 4253.73 3048.96 L 4253.32 3048.96 M 4256.72 3048.96 L 4258.97 3048.96 L 4257.74 3050.6 L 4258.35 3050.6 L 4258.76 3050.8 L 4258.97 3051 L 4259.17 3051.62 L 4259.17 3052.03 L 4258.97 3052.64 L 4258.56 3053.05 L 4257.95 3053.25 L 4257.33 3053.25 L 4256.72 3053.05 L 4256.51 3052.85 L 4256.31 3052.44 M 4260.73 3049.98 L 4260.73 3049.78 L 4260.93 3049.37 L 4261.14 3049.16 L 4261.55 3048.96 L 4262.36 3048.96 L 4262.77 3049.16 L 4262.98 3049.37 L 4263.18 3049.78 L 4263.18 3050.19 L 4262.98 3050.6 L 4262.57 3051.21 L 4260.52 3053.25 L 4263.39 3053.25 M 4267.89 3048.96 L 4267.89 3053.25 M 4267.89 3048.96 L 4269.73 3048.96 L 4270.34 3049.16 L 4270.55 3049.37 L 4270.75 3049.78 L 4270.75 3050.19 L 4270.55 3050.6 L 4270.34 3050.8 L 4269.73 3051 M 4267.89 3051 L 4269.73 3051 L 4270.34 3051.21 L 4270.55 3051.41 L 4270.75 3051.82 L 4270.75 3052.44 L 4270.55 3052.85 L 4270.34 3053.05 L 4269.73 3053.25 L 4267.89 3053.25 M 4273.74 3048.96 L 4272.1 3053.25 M 4273.74 3048.96 L 4275.37 3053.25 M 4272.71 3051.82 L 4274.76 3051.82 M 4278.15 3048.96 L 4278.15 3053.25 M 4276.72 3048.96 L 4279.59 3048.96 M 4282.37 3048.96 L 4282.37 3053.25 M 4280.94 3048.96 L 4283.8 3048.96 M 4285.15 3048.96 L 4285.15 3053.25 M 4285.15 3048.96 L 4287.81 3048.96 M 4285.15 3051 L 4286.79 3051 M 4285.15 3053.25 L 4287.81 3053.25 M 4289.16 3048.96 L 4289.16 3053.25 M 4289.16 3048.96 L 4291 3048.96 L 4291.61 3049.16 L 4291.82 3049.37 L 4292.02 3049.78 L 4292.02 3050.19 L 4291.82 3050.6 L 4291.61 3050.8 L 4291 3051 L 4289.16 3051 M 4290.59 3051 L 4292.02 3053.25 M 4293.37 3048.96 L 4295.01 3051 L 4295.01 3053.25 M 4296.65 3048.96 L 4295.01 3051 M 4301.15 3048.96 L 4301.15 3053.25 M 4304.01 3048.96 L 4304.01 3053.25 M 4301.15 3051 L 4304.01 3051 M 4306.59 3048.96 L 4306.18 3049.16 L 4305.77 3049.57 L 4305.56 3049.98 L 4305.36 3050.6 L 4305.36 3051.62 L 4305.56 3052.23 L 4305.77 3052.64 L 4306.18 3053.05 L 4306.59 3053.25 L 4307.4 3053.25 L 4307.81 3053.05 L 4308.22 3052.64 L 4308.43 3052.23 L 4308.63 3051.62 L 4308.63 3050.6 L 4308.43 3049.98 L 4308.22 3049.57 L 4307.81 3049.16 L 4307.4 3048.96 L 4306.59 3048.96 M 4309.98 3048.96 L 4309.98 3053.25 M 4309.98 3053.25 L 4312.44 3053.25 M 4313.79 3048.96 L 4313.79 3053.25 M 4313.79 3048.96 L 4315.22 3048.96 L 4315.83 3049.16 L 4316.24 3049.57 L 4316.45 3049.98 L 4316.65 3050.6 L 4316.65 3051.62 L 4316.45 3052.23 L 4316.24 3052.64 L 4315.83 3053.05 L 4315.22 3053.25 L 4313.79 3053.25 M 4318 3048.96 L 4318 3053.25 M 4318 3048.96 L 4320.66 3048.96 M 4318 3051 L 4319.64 3051 M 4318 3053.25 L 4320.66 3053.25 M 4322.01 3048.96 L 4322.01 3053.25 M 4322.01 3048.96 L 4323.85 3048.96 L 4324.46 3049.16 L 4324.67 3049.37 L 4324.87 3049.78 L 4324.87 3050.19 L 4324.67 3050.6 L 4324.46 3050.8 L 4323.85 3051 L 4322.01 3051 M 4323.44 3051 L 4324.87 3053.25 M 4330.8 3048.14 L 4330.4 3048.55 L 4329.99 3049.16 L 4329.58 3049.98 L 4329.37 3051 L 4329.37 3051.82 L 4329.58 3052.85 L 4329.99 3053.66 L 4330.4 3054.28 L 4330.8 3054.69 M 4333.59 3048.96 L 4333.59 3053.25 M 4332.15 3048.96 L 4335.02 3048.96 M 4336.37 3048.96 L 4336.37 3053.25 M 4339.23 3048.96 L 4339.23 3053.25 M 4336.37 3051 L 4339.23 3051 M 4342.01 3048.96 L 4342.01 3053.25 M 4340.58 3048.96 L 4343.45 3048.96 M 4344.8 3048.14 L 4345.2 3048.55 L 4345.61 3049.16 L 4346.02 3049.98 L 4346.23 3051 L 4346.23 3051.82 L 4346.02 3052.85 L 4345.61 3053.66 L 4345.2 3054.28 L 4344.8 3054.69" fill="none" stroke-width="0.6" c_note="note_name" style=""/></g><g c_partid="part_pcbtext" c_etype="" c_origin="4239.25,3060.5" c_rotation="0" c_mirror="" id="gge187_3" locked="0" layerid="3" c_shapetype="group"><path c_fontsize="4.5" c_fontfamily="" c_text="B4" d="M 4239.25 3055.96 L 4239.25 3060.25 M 4239.25 3055.96 L 4241.09 3055.96 L 4241.7 3056.16 L 4241.91 3056.37 L 4242.11 3056.78 L 4242.11 3057.19 L 4241.91 3057.6 L 4241.7 3057.8 L 4241.09 3058 M 4239.25 3058 L 4241.09 3058 L 4241.7 3058.21 L 4241.91 3058.41 L 4242.11 3058.82 L 4242.11 3059.44 L 4241.91 3059.85 L 4241.7 3060.05 L 4241.09 3060.25 L 4239.25 3060.25 M 4245.51 3055.96 L 4243.46 3058.82 L 4246.53 3058.82 M 4245.51 3055.96 L 4245.51 3060.25" fill="none" stroke-width="0.6" c_note="note_pre" style=""/></g><g c_partid="part_pcbtext" c_etype="" c_origin="4129.25,3053.5" c_rotation="0" c_mirror="" id="gge203_3" locked="0" layerid="3" c_shapetype="group" display="none"><path c_fontsize="4.5" c_fontfamily="" c_text="CR2032 BATTERY HOLDER (THT)" d="M 4132.32 3049.98 L 4132.11 3049.57 L 4131.7 3049.16 L 4131.3 3048.96 L 4130.48 3048.96 L 4130.07 3049.16 L 4129.66 3049.57 L 4129.45 3049.98 L 4129.25 3050.6 L 4129.25 3051.62 L 4129.45 3052.23 L 4129.66 3052.64 L 4130.07 3053.05 L 4130.48 3053.25 L 4131.3 3053.25 L 4131.7 3053.05 L 4132.11 3052.64 L 4132.32 3052.23 M 4133.67 3048.96 L 4133.67 3053.25 M 4133.67 3048.96 L 4135.51 3048.96 L 4136.12 3049.16 L 4136.33 3049.37 L 4136.53 3049.78 L 4136.53 3050.19 L 4136.33 3050.6 L 4136.12 3050.8 L 4135.51 3051 L 4133.67 3051 M 4135.1 3051 L 4136.53 3053.25 M 4138.09 3049.98 L 4138.09 3049.78 L 4138.29 3049.37 L 4138.5 3049.16 L 4138.9 3048.96 L 4139.72 3048.96 L 4140.13 3049.16 L 4140.34 3049.37 L 4140.54 3049.78 L 4140.54 3050.19 L 4140.34 3050.6 L 4139.93 3051.21 L 4137.88 3053.25 L 4140.75 3053.25 M 4143.32 3048.96 L 4142.71 3049.16 L 4142.3 3049.78 L 4142.1 3050.8 L 4142.1 3051.41 L 4142.3 3052.44 L 4142.71 3053.05 L 4143.32 3053.25 L 4143.73 3053.25 L 4144.35 3053.05 L 4144.75 3052.44 L 4144.96 3051.41 L 4144.96 3050.8 L 4144.75 3049.78 L 4144.35 3049.16 L 4143.73 3048.96 L 4143.32 3048.96 M 4146.72 3048.96 L 4148.97 3048.96 L 4147.74 3050.6 L 4148.35 3050.6 L 4148.76 3050.8 L 4148.97 3051 L 4149.17 3051.62 L 4149.17 3052.03 L 4148.97 3052.64 L 4148.56 3053.05 L 4147.95 3053.25 L 4147.33 3053.25 L 4146.72 3053.05 L 4146.51 3052.85 L 4146.31 3052.44 M 4150.73 3049.98 L 4150.73 3049.78 L 4150.93 3049.37 L 4151.14 3049.16 L 4151.55 3048.96 L 4152.36 3048.96 L 4152.77 3049.16 L 4152.98 3049.37 L 4153.18 3049.78 L 4153.18 3050.19 L 4152.98 3050.6 L 4152.57 3051.21 L 4150.52 3053.25 L 4153.39 3053.25 M 4157.89 3048.96 L 4157.89 3053.25 M 4157.89 3048.96 L 4159.73 3048.96 L 4160.34 3049.16 L 4160.55 3049.37 L 4160.75 3049.78 L 4160.75 3050.19 L 4160.55 3050.6 L 4160.34 3050.8 L 4159.73 3051 M 4157.89 3051 L 4159.73 3051 L 4160.34 3051.21 L 4160.55 3051.41 L 4160.75 3051.82 L 4160.75 3052.44 L 4160.55 3052.85 L 4160.34 3053.05 L 4159.73 3053.25 L 4157.89 3053.25 M 4163.74 3048.96 L 4162.1 3053.25 M 4163.74 3048.96 L 4165.37 3053.25 M 4162.71 3051.82 L 4164.76 3051.82 M 4168.15 3048.96 L 4168.15 3053.25 M 4166.72 3048.96 L 4169.59 3048.96 M 4172.37 3048.96 L 4172.37 3053.25 M 4170.94 3048.96 L 4173.8 3048.96 M 4175.15 3048.96 L 4175.15 3053.25 M 4175.15 3048.96 L 4177.81 3048.96 M 4175.15 3051 L 4176.79 3051 M 4175.15 3053.25 L 4177.81 3053.25 M 4179.16 3048.96 L 4179.16 3053.25 M 4179.16 3048.96 L 4181 3048.96 L 4181.61 3049.16 L 4181.82 3049.37 L 4182.02 3049.78 L 4182.02 3050.19 L 4181.82 3050.6 L 4181.61 3050.8 L 4181 3051 L 4179.16 3051 M 4180.59 3051 L 4182.02 3053.25 M 4183.37 3048.96 L 4185.01 3051 L 4185.01 3053.25 M 4186.65 3048.96 L 4185.01 3051 M 4191.15 3048.96 L 4191.15 3053.25 M 4194.01 3048.96 L 4194.01 3053.25 M 4191.15 3051 L 4194.01 3051 M 4196.59 3048.96 L 4196.18 3049.16 L 4195.77 3049.57 L 4195.56 3049.98 L 4195.36 3050.6 L 4195.36 3051.62 L 4195.56 3052.23 L 4195.77 3052.64 L 4196.18 3053.05 L 4196.59 3053.25 L 4197.4 3053.25 L 4197.81 3053.05 L 4198.22 3052.64 L 4198.43 3052.23 L 4198.63 3051.62 L 4198.63 3050.6 L 4198.43 3049.98 L 4198.22 3049.57 L 4197.81 3049.16 L 4197.4 3048.96 L 4196.59 3048.96 M 4199.98 3048.96 L 4199.98 3053.25 M 4199.98 3053.25 L 4202.44 3053.25 M 4203.79 3048.96 L 4203.79 3053.25 M 4203.79 3048.96 L 4205.22 3048.96 L 4205.83 3049.16 L 4206.24 3049.57 L 4206.45 3049.98 L 4206.65 3050.6 L 4206.65 3051.62 L 4206.45 3052.23 L 4206.24 3052.64 L 4205.83 3053.05 L 4205.22 3053.25 L 4203.79 3053.25 M 4208 3048.96 L 4208 3053.25 M 4208 3048.96 L 4210.66 3048.96 M 4208 3051 L 4209.64 3051 M 4208 3053.25 L 4210.66 3053.25 M 4212.01 3048.96 L 4212.01 3053.25 M 4212.01 3048.96 L 4213.85 3048.96 L 4214.46 3049.16 L 4214.67 3049.37 L 4214.87 3049.78 L 4214.87 3050.19 L 4214.67 3050.6 L 4214.46 3050.8 L 4213.85 3051 L 4212.01 3051 M 4213.44 3051 L 4214.87 3053.25 M 4220.8 3048.14 L 4220.4 3048.55 L 4219.99 3049.16 L 4219.58 3049.98 L 4219.37 3051 L 4219.37 3051.82 L 4219.58 3052.85 L 4219.99 3053.66 L 4220.4 3054.28 L 4220.8 3054.69 M 4223.59 3048.96 L 4223.59 3053.25 M 4222.15 3048.96 L 4225.02 3048.96 M 4226.37 3048.96 L 4226.37 3053.25 M 4229.23 3048.96 L 4229.23 3053.25 M 4226.37 3051 L 4229.23 3051 M 4232.01 3048.96 L 4232.01 3053.25 M 4230.58 3048.96 L 4233.45 3048.96 M 4234.8 3048.14 L 4235.2 3048.55 L 4235.61 3049.16 L 4236.02 3049.98 L 4236.23 3051 L 4236.23 3051.82 L 4236.02 3052.85 L 4235.61 3053.66 L 4235.2 3054.28 L 4234.8 3054.69" fill="none" stroke-width="0.6" c_note="note_name" style=""/></g><g c_partid="part_pcbtext" c_etype="" c_origin="4129.25,3060.5" c_rotation="0" c_mirror="" id="gge205_3" locked="0" layerid="3" c_shapetype="group"><path c_fontsize="4.5" c_fontfamily="" c_text="B3" d="M 4129.25 3055.96 L 4129.25 3060.25 M 4129.25 3055.96 L 4131.09 3055.96 L 4131.7 3056.16 L 4131.91 3056.37 L 4132.11 3056.78 L 4132.11 3057.19 L 4131.91 3057.6 L 4131.7 3057.8 L 4131.09 3058 M 4129.25 3058 L 4131.09 3058 L 4131.7 3058.21 L 4131.91 3058.41 L 4132.11 3058.82 L 4132.11 3059.44 L 4131.91 3059.85 L 4131.7 3060.05 L 4131.09 3060.25 L 4129.25 3060.25 M 4133.87 3055.96 L 4136.12 3055.96 L 4134.9 3057.6 L 4135.51 3057.6 L 4135.92 3057.8 L 4136.12 3058 L 4136.33 3058.62 L 4136.33 3059.03 L 4136.12 3059.64 L 4135.71 3060.05 L 4135.1 3060.25 L 4134.49 3060.25 L 4133.87 3060.05 L 4133.67 3059.85 L 4133.46 3059.44" fill="none" stroke-width="0.6" c_note="note_pre" style=""/></g><path d="M 4185.3999 3174.5 A 3 3 0 1 0 4191.3999 3174.5" locked="0" c_shapetype="line" fill="none" stroke-width="1" c_helper_type="arc2" net="" layerid="3" id="gge8_3"/><path d="M 4289.5 3104.25 A 43.25072 43.25072 0 1 0 4289.49 3105.02" locked="0" c_shapetype="line" fill="none" stroke-width="1" c_helper_type="arc2" net="" layerid="3" id="gge189_3"/><path d="M 4179.5 3104.25 A 43.25072 43.25072 0 1 0 4179.49 3105.02" locked="0" c_shapetype="line" fill="none" stroke-width="1" c_helper_type="arc2" net="" layerid="3" id="gge207_3"/></g><path d="M4050 3263,4050 3050,4307 3050,4307 3263z" stroke="none" id="bottomBoardSolderReal" mask="url(#bottomBoardSolderMask)" fill="#002966" display="none"/><g id="bottomSignalReal" fill="#DCAA14" stroke="#DCAA14" display="none"><g c_partid="part_pad" c_etype="pinpart" layerid="11" id="gge9_11" c_origin="4173.3999,3175.5" net="" c_rotation="0" c_width="6" c_height="6"><polygon points="4170.3999 3172.5 4176.3999 3172.5 4176.3999 3178.5 4170.3999 3178.5" stroke-width="0" c_etype="pad_outer"/></g><g c_partid="part_pad" c_etype="pinpart" layerid="11" id="gge14_11" c_origin="4173.3999,3185.5" net="" c_rotation="0" c_width="6" c_height="6"><ellipse cx="4173.3999" cy="3185.5" rx="3" ry="3" stroke-width="0" c_etype="pad_hole"/></g><g c_partid="part_pad" c_etype="pinpart" layerid="11" id="gge19_11" c_origin="4173.3999,3195.5" net="" c_rotation="0" c_width="6" c_height="6"><ellipse cx="4173.3999" cy="3195.5" rx="3" ry="3" stroke-width="0" c_etype="pad_hole"/></g><g c_partid="part_pad" c_etype="pinpart" layerid="11" id="gge24_11" c_origin="4173.3999,3205.5" net="" c_rotation="0" c_width="6" c_height="6"><ellipse cx="4173.3999" cy="3205.5" rx="3" ry="3" stroke-width="0" c_etype="pad_hole"/></g><g c_partid="part_pad" c_etype="pinpart" layerid="11" id="gge29_11" c_origin="4203.3999,3205.5" net="" c_rotation="0" c_width="6" c_height="6"><ellipse cx="4203.3999" cy="3205.5" rx="3" ry="3" stroke-width="0" c_etype="pad_hole"/></g><g c_partid="part_pad" c_etype="pinpart" layerid="11" id="gge34_11" c_origin="4203.3999,3195.5" net="" c_rotation="0" c_width="6" c_height="6"><ellipse cx="4203.3999" cy="3195.5" rx="3" ry="3" stroke-width="0" c_etype="pad_hole"/></g><g c_partid="part_pad" c_etype="pinpart" layerid="11" id="gge39_11" c_origin="4203.3999,3185.5" net="" c_rotation="0" c_width="6" c_height="6"><ellipse cx="4203.3999" cy="3185.5" rx="3" ry="3" stroke-width="0" c_etype="pad_hole"/></g><g c_partid="part_pad" c_etype="pinpart" layerid="11" id="gge44_11" c_origin="4203.3999,3175.5" net="" c_rotation="0" c_width="6" c_height="6"><ellipse cx="4203.3999" cy="3175.5" rx="3" ry="3" stroke-width="0" c_etype="pad_hole"/></g><g c_partid="part_pad" c_etype="pinpart" layerid="11" id="gge149_11" c_origin="4089,3206.9" net="" c_rotation="0" c_width="6.6" c_height="6.6"><ellipse cx="4089" cy="3206.9" rx="3.3" ry="3.3" stroke-width="0" c_etype="pad_hole"/></g><g c_partid="part_pad" c_etype="pinpart" layerid="11" id="gge154_11" c_origin="4083.7,3201.5" net="" c_rotation="0" c_width="6.6" c_height="6.6"><ellipse cx="4083.7" cy="3201.5" rx="3.3" ry="3.3" stroke-width="0" c_etype="pad_hole"/></g><g c_partid="part_pad" c_etype="pinpart" layerid="11" id="gge173_11" c_origin="4084.4,3246.5" net="" c_rotation="0" c_width="8" c_height="8"><ellipse cx="4084.4" cy="3246.5" rx="4" ry="4" stroke-width="0" c_etype="pad_hole"/></g><g c_partid="part_pad" c_etype="pinpart" layerid="11" id="gge178_11" c_origin="4114.4,3246.5" net="" c_rotation="0" c_width="8" c_height="8"><ellipse cx="4114.4" cy="3246.5" rx="4" ry="4" stroke-width="0" c_etype="pad_hole"/></g><g c_partid="part_pad" c_etype="pinpart" layerid="11" id="gge191_11" c_origin="4195.5,3104.5" net="" c_rotation="0" c_width="7.874" c_height="7.874"><ellipse cx="4195.5" cy="3104.5" rx="3.937" ry="3.937" stroke-width="0" c_etype="pad_hole"/></g><g c_partid="part_pad" c_etype="pinpart" layerid="11" id="gge196_11" c_origin="4278,3104.5" net="" c_rotation="0" c_width="7.874" c_height="7.874"><ellipse cx="4278" cy="3104.5" rx="3.937" ry="3.937" stroke-width="0" c_etype="pad_hole"/></g><g c_partid="part_pad" c_etype="pinpart" layerid="11" id="gge209_11" c_origin="4085.5,3104.5" net="" c_rotation="0" c_width="7.874" c_height="7.874"><ellipse cx="4085.5" cy="3104.5" rx="3.937" ry="3.937" stroke-width="0" c_etype="pad_hole"/></g><g c_partid="part_pad" c_etype="pinpart" layerid="11" id="gge214_11" c_origin="4168,3104.5" net="" c_rotation="0" c_width="7.874" c_height="7.874"><ellipse cx="4168" cy="3104.5" rx="3.937" ry="3.937" stroke-width="0" c_etype="pad_hole"/></g></g><g id="bottomSignalSolderReal" mask="url(#bottomSignalSolderMask)" fill="#005CB6" stroke="#005CB6" display="none"><g c_partid="part_pad" c_etype="pinpart" layerid="11" id="gge9_11" c_origin="4173.3999,3175.5" net="" c_rotation="0" c_width="6" c_height="6"><polygon points="4170.3999 3172.5 4176.3999 3172.5 4176.3999 3178.5 4170.3999 3178.5" stroke-width="0" c_etype="pad_outer"/></g><g c_partid="part_pad" c_etype="pinpart" layerid="11" id="gge14_11" c_origin="4173.3999,3185.5" net="" c_rotation="0" c_width="6" c_height="6"><ellipse cx="4173.3999" cy="3185.5" rx="3" ry="3" stroke-width="0" c_etype="pad_hole"/></g><g c_partid="part_pad" c_etype="pinpart" layerid="11" id="gge19_11" c_origin="4173.3999,3195.5" net="" c_rotation="0" c_width="6" c_height="6"><ellipse cx="4173.3999" cy="3195.5" rx="3" ry="3" stroke-width="0" c_etype="pad_hole"/></g><g c_partid="part_pad" c_etype="pinpart" layerid="11" id="gge24_11" c_origin="4173.3999,3205.5" net="" c_rotation="0" c_width="6" c_height="6"><ellipse cx="4173.3999" cy="3205.5" rx="3" ry="3" stroke-width="0" c_etype="pad_hole"/></g><g c_partid="part_pad" c_etype="pinpart" layerid="11" id="gge29_11" c_origin="4203.3999,3205.5" net="" c_rotation="0" c_width="6" c_height="6"><ellipse cx="4203.3999" cy="3205.5" rx="3" ry="3" stroke-width="0" c_etype="pad_hole"/></g><g c_partid="part_pad" c_etype="pinpart" layerid="11" id="gge34_11" c_origin="4203.3999,3195.5" net="" c_rotation="0" c_width="6" c_height="6"><ellipse cx="4203.3999" cy="3195.5" rx="3" ry="3" stroke-width="0" c_etype="pad_hole"/></g><g c_partid="part_pad" c_etype="pinpart" layerid="11" id="gge39_11" c_origin="4203.3999,3185.5" net="" c_rotation="0" c_width="6" c_height="6"><ellipse cx="4203.3999" cy="3185.5" rx="3" ry="3" stroke-width="0" c_etype="pad_hole"/></g><g c_partid="part_pad" c_etype="pinpart" layerid="11" id="gge44_11" c_origin="4203.3999,3175.5" net="" c_rotation="0" c_width="6" c_height="6"><ellipse cx="4203.3999" cy="3175.5" rx="3" ry="3" stroke-width="0" c_etype="pad_hole"/></g><g c_partid="part_pad" c_etype="pinpart" layerid="11" id="gge149_11" c_origin="4089,3206.9" net="" c_rotation="0" c_width="6.6" c_height="6.6"><ellipse cx="4089" cy="3206.9" rx="3.3" ry="3.3" stroke-width="0" c_etype="pad_hole"/></g><g c_partid="part_pad" c_etype="pinpart" layerid="11" id="gge154_11" c_origin="4083.7,3201.5" net="" c_rotation="0" c_width="6.6" c_height="6.6"><ellipse cx="4083.7" cy="3201.5" rx="3.3" ry="3.3" stroke-width="0" c_etype="pad_hole"/></g><g c_partid="part_pad" c_etype="pinpart" layerid="11" id="gge173_11" c_origin="4084.4,3246.5" net="" c_rotation="0" c_width="8" c_height="8"><ellipse cx="4084.4" cy="3246.5" rx="4" ry="4" stroke-width="0" c_etype="pad_hole"/></g><g c_partid="part_pad" c_etype="pinpart" layerid="11" id="gge178_11" c_origin="4114.4,3246.5" net="" c_rotation="0" c_width="8" c_height="8"><ellipse cx="4114.4" cy="3246.5" rx="4" ry="4" stroke-width="0" c_etype="pad_hole"/></g><g c_partid="part_pad" c_etype="pinpart" layerid="11" id="gge191_11" c_origin="4195.5,3104.5" net="" c_rotation="0" c_width="7.874" c_height="7.874"><ellipse cx="4195.5" cy="3104.5" rx="3.937" ry="3.937" stroke-width="0" c_etype="pad_hole"/></g><g c_partid="part_pad" c_etype="pinpart" layerid="11" id="gge196_11" c_origin="4278,3104.5" net="" c_rotation="0" c_width="7.874" c_height="7.874"><ellipse cx="4278" cy="3104.5" rx="3.937" ry="3.937" stroke-width="0" c_etype="pad_hole"/></g><g c_partid="part_pad" c_etype="pinpart" layerid="11" id="gge209_11" c_origin="4085.5,3104.5" net="" c_rotation="0" c_width="7.874" c_height="7.874"><ellipse cx="4085.5" cy="3104.5" rx="3.937" ry="3.937" stroke-width="0" c_etype="pad_hole"/></g><g c_partid="part_pad" c_etype="pinpart" layerid="11" id="gge214_11" c_origin="4168,3104.5" net="" c_rotation="0" c_width="7.874" c_height="7.874"><ellipse cx="4168" cy="3104.5" rx="3.937" ry="3.937" stroke-width="0" c_etype="pad_hole"/></g></g></g></g></svg>