<?xml version="1.0" encoding="utf-8" standalone="no"?><svg xmlns="http://www.w3.org/2000/svg" xmlns:xlink="http://www.w3.org/1999/xlink" width="76.45400000000001mm" height="50.292mm" viewBox="4038 3340 301 198"><title>Photo View</title><rect x="4038" y="3340" width="301" height="198" fill="#000000" stroke="none"/><defs xmlns="http://www.w3.org/2000/svg" id="patterns"><pattern id="gridPattern" x="4000" y="3000" width="10" height="10" patternUnits="userSpaceOnUse"><rect id="gridCell" x="0" y="0" width="0.50001" height="0.50001" fill="#FFFFFF" stroke="none" fill-opacity="0.8"/></pattern><pattern id="gridPattern2" x="4000.50001" y="3000.50001" width="10" height="10" patternUnits="userSpaceOnUse"><path id="gridCell2" d="M10 0V10H-10" fill="none" stroke="#FFFFFF" stroke-width="0.50001" stroke-opacity="0.6"/></pattern><marker id="arrowOnStart" orient="auto" refY="0" refX="0" style="overflow:visible" markerUnits="strokeWidth"><path d="M 2,0 l 4,-2, 0,4 z" stroke-width="6"/></marker><marker id="arrowOnEnd" orient="auto" refY="0" refX="0" style="overflow:visible" markerUnits="strokeWidth"><path d="M -2,0 l -4,-2, 0,4 z" stroke-width="6"/></marker><marker id="arrowOnStartChrome" orient="auto" refY="0" refX="0" style="overflow:visible" markerUnits="strokeWidth"><path d="M 2,0 l 4,-2, 0,4 z" stroke-width="3" stroke="#FFFFFF"/></marker><marker id="arrowOnEndChrome" orient="auto" refY="0" refX="0" style="overflow:visible" markerUnits="strokeWidth"><path d="M -2,0 l -4,-2, 0,4 z" stroke-width="3" stroke="#FFFFFF"/></marker><svg id="icon-lock" title="Unlock" viewBox="0 0 20 20" height="20" width="20"><path stroke="#F0F" stroke-width="2" style="cursor:pointer;fill-opacity:.001;fill:#fff" d="M 5 7 C 5 -1 15 -1 15 7L1 7 1 19 19 19 19 7 15 7"/></svg><mask id="topBoardSolderMask" maskUnits="userSpaceOnUse" x="4048" y="3350" width="281" height="178"><path d="M4048 3528,4048 3350,4329 3350,4329 3528z" stroke="none" fill="white"/></mask><mask id="topSignalSolderMask" maskUnits="userSpaceOnUse" x="4048" y="3350" width="281" height="178"><path d="M4048 3528,4048 3350,4329 3350,4329 3528z" stroke="none" fill="white"/></mask><mask id="bottomBoardSolderMask" maskUnits="userSpaceOnUse" x="4048" y="3350" width="281" height="178"><path d="M4048 3528,4048 3350,4329 3350,4329 3528z" stroke="none" fill="white"/></mask><mask id="bottomSignalSolderMask" maskUnits="userSpaceOnUse" x="4048" y="3350" width="281" height="178"><path d="M4048 3528,4048 3350,4329 3350,4329 3528z" stroke="none" fill="white"/></mask></defs><g xmlns="http://www.w3.org/2000/svg" id="g1" class="photoview"><g id="layer_other" class="shapeBox"><path d="M4048 3528,4048 3350,4329 3350,4329 3528z" stroke="none" id="boardOutlineReal" fill="#80785F"/><path d="M4048 3528,4048 3350,4329 3350,4329 3528z" stroke="none" id="topBoardSolderReal" mask="url(#topBoardSolderMask)" fill="#002966"/><g id="topSilkLayer" fill="#FFFFFF" stroke="#FFFFFF"><polyline points="4263.2 3484.4 4263.2 3487.6" stroke-width="1" c_shapetype="line" stroke-linecap="round" fill="none" layerid="3" net="" id="gge7_3" locked="0"/><polyline points="4256.2 3494.6 4251 3494.6" stroke-width="1" c_shapetype="line" stroke-linecap="round" fill="none" layerid="3" net="" id="gge9_3" locked="0"/><polyline points="4244 3487.6 4244 3484.4" stroke-width="1" c_shapetype="line" stroke-linecap="round" fill="none" layerid="3" net="" id="gge11_3" locked="0"/><polyline points="4251 3477.4 4256.2 3477.4" stroke-width="1" c_shapetype="line" stroke-linecap="round" fill="none" layerid="3" net="" id="gge13_3" locked="0"/><polyline points="4227 3477 4227 3477 4234 3477 4234 3509 4214 3509 4214 3477 4221 3477 4221 3477" stroke-width="1" c_shapetype="line" stroke-linecap="round" fill="none" layerid="3" net="" id="gge23_3" locked="0"/><polyline points="4275 3477 4295 3477" stroke-width="1" c_shapetype="line" stroke-linecap="round" fill="none" layerid="3" net="" id="gge56_3" locked="0"/><polyline points="4295 3477 4295 3482" stroke-width="1" c_shapetype="line" stroke-linecap="round" fill="none" layerid="3" net="" id="gge57_3" locked="0"/><polyline points="4295 3482 4295 3487" stroke-width="1" c_shapetype="line" stroke-linecap="round" fill="none" layerid="3" net="" id="gge58_3" locked="0"/><polyline points="4295 3487 4275 3487" stroke-width="1" c_shapetype="line" stroke-linecap="round" fill="none" layerid="3" net="" id="gge59_3" locked="0"/><polyline points="4275 3487 4275 3482" stroke-width="1" c_shapetype="line" stroke-linecap="round" fill="none" layerid="3" net="" id="gge60_3" locked="0"/><polyline points="4275 3482 4275 3477" stroke-width="1" c_shapetype="line" stroke-linecap="round" fill="none" layerid="3" net="" id="gge61_3" locked="0"/><polyline points="4295 3482 4296 3482" stroke-width="1" c_shapetype="line" stroke-linecap="round" fill="none" layerid="3" net="" id="gge62_3" locked="0"/><polyline points="4275 3482 4274 3482" stroke-width="1" c_shapetype="line" stroke-linecap="round" fill="none" layerid="3" net="" id="gge63_3" locked="0"/><polyline points="4228.5 3421.5 4214 3421.5 4214 3399 4214.2072 3398.5 4228 3398.5" stroke-width="0.7874" c_shapetype="line" stroke-linecap="round" fill="none" layerid="3" net="" id="gge73_3" locked="0"/><g c_partid="part_pcbtext" c_etype="" c_origin="4253.6,3469" c_rotation="0" c_mirror="" id="gge3_3" locked="0" layerid="3" c_shapetype="group" display="none"><path c_fontsize="4.5" c_fontfamily="" c_text="Photoresistor-5528" d="M 4253.6 3464.46 L 4253.6 3468.75 M 4253.6 3464.46 L 4255.44 3464.46 L 4256.05 3464.66 L 4256.26 3464.87 L 4256.46 3465.28 L 4256.46 3465.89 L 4256.26 3466.3 L 4256.05 3466.5 L 4255.44 3466.71 L 4253.6 3466.71 M 4257.81 3464.46 L 4257.81 3468.75 M 4257.81 3466.71 L 4258.43 3466.1 L 4258.84 3465.89 L 4259.45 3465.89 L 4259.86 3466.1 L 4260.06 3466.71 L 4260.06 3468.75 M 4262.44 3465.89 L 4262.03 3466.1 L 4261.62 3466.5 L 4261.41 3467.12 L 4261.41 3467.53 L 4261.62 3468.14 L 4262.03 3468.55 L 4262.44 3468.75 L 4263.05 3468.75 L 4263.46 3468.55 L 4263.87 3468.14 L 4264.07 3467.53 L 4264.07 3467.12 L 4263.87 3466.5 L 4263.46 3466.1 L 4263.05 3465.89 L 4262.44 3465.89 M 4266.04 3464.46 L 4266.04 3467.94 L 4266.24 3468.55 L 4266.65 3468.75 L 4267.06 3468.75 M 4265.42 3465.89 L 4266.85 3465.89 M 4269.43 3465.89 L 4269.02 3466.1 L 4268.61 3466.5 L 4268.41 3467.12 L 4268.41 3467.53 L 4268.61 3468.14 L 4269.02 3468.55 L 4269.43 3468.75 L 4270.05 3468.75 L 4270.45 3468.55 L 4270.86 3468.14 L 4271.07 3467.53 L 4271.07 3467.12 L 4270.86 3466.5 L 4270.45 3466.1 L 4270.05 3465.89 L 4269.43 3465.89 M 4272.42 3465.89 L 4272.42 3468.75 M 4272.42 3467.12 L 4272.62 3466.5 L 4273.03 3466.1 L 4273.44 3465.89 L 4274.05 3465.89 M 4275.4 3467.12 L 4277.86 3467.12 L 4277.86 3466.71 L 4277.65 3466.3 L 4277.45 3466.1 L 4277.04 3465.89 L 4276.43 3465.89 L 4276.02 3466.1 L 4275.61 3466.5 L 4275.4 3467.12 L 4275.4 3467.53 L 4275.61 3468.14 L 4276.02 3468.55 L 4276.43 3468.75 L 4277.04 3468.75 L 4277.45 3468.55 L 4277.86 3468.14 M 4281.46 3466.5 L 4281.25 3466.1 L 4280.64 3465.89 L 4280.03 3465.89 L 4279.41 3466.1 L 4279.21 3466.5 L 4279.41 3466.91 L 4279.82 3467.12 L 4280.85 3467.32 L 4281.25 3467.53 L 4281.46 3467.94 L 4281.46 3468.14 L 4281.25 3468.55 L 4280.64 3468.75 L 4280.03 3468.75 L 4279.41 3468.55 L 4279.21 3468.14 M 4282.81 3464.46 L 4283.01 3464.66 L 4283.22 3464.46 L 4283.01 3464.25 L 4282.81 3464.46 M 4283.01 3465.89 L 4283.01 3468.75 M 4286.82 3466.5 L 4286.61 3466.1 L 4286 3465.89 L 4285.39 3465.89 L 4284.77 3466.1 L 4284.57 3466.5 L 4284.77 3466.91 L 4285.18 3467.12 L 4286.2 3467.32 L 4286.61 3467.53 L 4286.82 3467.94 L 4286.82 3468.14 L 4286.61 3468.55 L 4286 3468.75 L 4285.39 3468.75 L 4284.77 3468.55 L 4284.57 3468.14 M 4288.78 3464.46 L 4288.78 3467.94 L 4288.99 3468.55 L 4289.4 3468.75 L 4289.8 3468.75 M 4288.17 3465.89 L 4289.6 3465.89 M 4292.18 3465.89 L 4291.77 3466.1 L 4291.36 3466.5 L 4291.15 3467.12 L 4291.15 3467.53 L 4291.36 3468.14 L 4291.77 3468.55 L 4292.18 3468.75 L 4292.79 3468.75 L 4293.2 3468.55 L 4293.61 3468.14 L 4293.81 3467.53 L 4293.81 3467.12 L 4293.61 3466.5 L 4293.2 3466.1 L 4292.79 3465.89 L 4292.18 3465.89 M 4295.16 3465.89 L 4295.16 3468.75 M 4295.16 3467.12 L 4295.37 3466.5 L 4295.78 3466.1 L 4296.19 3465.89 L 4296.8 3465.89 M 4298.15 3466.91 L 4301.83 3466.91 M 4305.64 3464.46 L 4303.59 3464.46 L 4303.39 3466.3 L 4303.59 3466.1 L 4304.2 3465.89 L 4304.82 3465.89 L 4305.43 3466.1 L 4305.84 3466.5 L 4306.05 3467.12 L 4306.05 3467.53 L 4305.84 3468.14 L 4305.43 3468.55 L 4304.82 3468.75 L 4304.2 3468.75 L 4303.59 3468.55 L 4303.39 3468.35 L 4303.18 3467.94 M 4309.85 3464.46 L 4307.8 3464.46 L 4307.6 3466.3 L 4307.8 3466.1 L 4308.42 3465.89 L 4309.03 3465.89 L 4309.65 3466.1 L 4310.05 3466.5 L 4310.26 3467.12 L 4310.26 3467.53 L 4310.05 3468.14 L 4309.65 3468.55 L 4309.03 3468.75 L 4308.42 3468.75 L 4307.8 3468.55 L 4307.6 3468.35 L 4307.4 3467.94 M 4311.81 3465.48 L 4311.81 3465.28 L 4312.02 3464.87 L 4312.22 3464.66 L 4312.63 3464.46 L 4313.45 3464.46 L 4313.86 3464.66 L 4314.06 3464.87 L 4314.27 3465.28 L 4314.27 3465.69 L 4314.06 3466.1 L 4313.65 3466.71 L 4311.61 3468.75 L 4314.47 3468.75 M 4316.85 3464.46 L 4316.23 3464.66 L 4316.03 3465.07 L 4316.03 3465.48 L 4316.23 3465.89 L 4316.64 3466.1 L 4317.46 3466.3 L 4318.07 3466.5 L 4318.48 3466.91 L 4318.69 3467.32 L 4318.69 3467.94 L 4318.48 3468.35 L 4318.28 3468.55 L 4317.66 3468.75 L 4316.85 3468.75 L 4316.23 3468.55 L 4316.03 3468.35 L 4315.82 3467.94 L 4315.82 3467.32 L 4316.03 3466.91 L 4316.44 3466.5 L 4317.05 3466.3 L 4317.87 3466.1 L 4318.28 3465.89 L 4318.48 3465.48 L 4318.48 3465.07 L 4318.28 3464.66 L 4317.66 3464.46 L 4316.85 3464.46" fill="none" stroke-width="0.6" c_note="note_name" style=""/></g><g c_partid="part_pcbtext" c_etype="" c_origin="4253.6,3476" c_rotation="0" c_mirror="" id="gge5_3" locked="0" layerid="3" c_shapetype="group"><path c_fontsize="4.5" c_fontfamily="" c_text="U2" d="M 4253.6 3471.46 L 4253.6 3474.53 L 4253.8 3475.14 L 4254.21 3475.55 L 4254.83 3475.75 L 4255.24 3475.75 L 4255.85 3475.55 L 4256.26 3475.14 L 4256.46 3474.53 L 4256.46 3471.46 M 4258.02 3472.48 L 4258.02 3472.28 L 4258.22 3471.87 L 4258.43 3471.66 L 4258.84 3471.46 L 4259.65 3471.46 L 4260.06 3471.66 L 4260.27 3471.87 L 4260.47 3472.28 L 4260.47 3472.69 L 4260.27 3473.1 L 4259.86 3473.71 L 4257.81 3475.75 L 4260.68 3475.75" fill="none" stroke-width="0.6" c_note="note_pre" style=""/></g><g c_partid="part_pcbtext" c_etype="" c_origin="4224,3469" c_rotation="0" c_mirror="" id="gge19_3" locked="0" layerid="3" c_shapetype="group" display="none"><path c_fontsize="4.5" c_fontfamily="" c_text="ATTINY85 (THT)" d="M 4225.64 3464.46 L 4224 3468.75 M 4225.64 3464.46 L 4227.27 3468.75 M 4224.61 3467.32 L 4226.66 3467.32 M 4230.05 3464.46 L 4230.05 3468.75 M 4228.62 3464.46 L 4231.49 3464.46 M 4234.27 3464.46 L 4234.27 3468.75 M 4232.84 3464.46 L 4235.7 3464.46 M 4237.05 3464.46 L 4237.05 3468.75 M 4238.4 3464.46 L 4238.4 3468.75 M 4238.4 3464.46 L 4241.26 3468.75 M 4241.26 3464.46 L 4241.26 3468.75 M 4242.61 3464.46 L 4244.25 3466.5 L 4244.25 3468.75 M 4245.89 3464.46 L 4244.25 3466.5 M 4248.26 3464.46 L 4247.65 3464.66 L 4247.44 3465.07 L 4247.44 3465.48 L 4247.65 3465.89 L 4248.05 3466.1 L 4248.87 3466.3 L 4249.49 3466.5 L 4249.9 3466.91 L 4250.1 3467.32 L 4250.1 3467.94 L 4249.9 3468.35 L 4249.69 3468.55 L 4249.08 3468.75 L 4248.26 3468.75 L 4247.65 3468.55 L 4247.44 3468.35 L 4247.24 3467.94 L 4247.24 3467.32 L 4247.44 3466.91 L 4247.85 3466.5 L 4248.46 3466.3 L 4249.28 3466.1 L 4249.69 3465.89 L 4249.9 3465.48 L 4249.9 3465.07 L 4249.69 3464.66 L 4249.08 3464.46 L 4248.26 3464.46 M 4253.9 3464.46 L 4251.86 3464.46 L 4251.65 3466.3 L 4251.86 3466.1 L 4252.47 3465.89 L 4253.09 3465.89 L 4253.7 3466.1 L 4254.11 3466.5 L 4254.31 3467.12 L 4254.31 3467.53 L 4254.11 3468.14 L 4253.7 3468.55 L 4253.09 3468.75 L 4252.47 3468.75 L 4251.86 3468.55 L 4251.65 3468.35 L 4251.45 3467.94 M 4260.25 3463.64 L 4259.84 3464.05 L 4259.43 3464.66 L 4259.02 3465.48 L 4258.81 3466.5 L 4258.81 3467.32 L 4259.02 3468.35 L 4259.43 3469.16 L 4259.84 3469.78 L 4260.25 3470.19 M 4263.03 3464.46 L 4263.03 3468.75 M 4261.6 3464.46 L 4264.46 3464.46 M 4265.81 3464.46 L 4265.81 3468.75 M 4268.67 3464.46 L 4268.67 3468.75 M 4265.81 3466.5 L 4268.67 3466.5 M 4271.45 3464.46 L 4271.45 3468.75 M 4270.02 3464.46 L 4272.89 3464.46 M 4274.24 3463.64 L 4274.65 3464.05 L 4275.05 3464.66 L 4275.46 3465.48 L 4275.67 3466.5 L 4275.67 3467.32 L 4275.46 3468.35 L 4275.05 3469.16 L 4274.65 3469.78 L 4274.24 3470.19" fill="none" stroke-width="0.6" c_note="note_name" style=""/></g><g c_partid="part_pcbtext" c_etype="" c_origin="4224,3476" c_rotation="0" c_mirror="" id="gge21_3" locked="0" layerid="3" c_shapetype="group"><path c_fontsize="4.5" c_fontfamily="" c_text="U1" d="M 4224 3471.46 L 4224 3474.53 L 4224.2 3475.14 L 4224.61 3475.55 L 4225.23 3475.75 L 4225.64 3475.75 L 4226.25 3475.55 L 4226.66 3475.14 L 4226.86 3474.53 L 4226.86 3471.46 M 4228.21 3472.28 L 4228.62 3472.07 L 4229.24 3471.46 L 4229.24 3475.75" fill="none" stroke-width="0.6" c_note="note_pre" style=""/></g><g c_partid="part_pcbtext" c_etype="" c_origin="4135.9998,3359" c_rotation="0" c_mirror="" id="gge35_3" locked="0" layerid="3" c_shapetype="group" display="none"><path c_fontsize="4.5" c_fontfamily="" c_text="NeoPixel Ring 12" d="M 4135.9998 3354.46 L 4135.9998 3358.75 M 4135.9998 3354.46 L 4138.8598 3358.75 M 4138.8598 3354.46 L 4138.8598 3358.75 M 4140.2098 3357.12 L 4142.6698 3357.12 L 4142.6698 3356.71 L 4142.4598 3356.3 L 4142.2598 3356.1 L 4141.8498 3355.89 L 4141.2398 3355.89 L 4140.8298 3356.1 L 4140.4198 3356.5 L 4140.2098 3357.12 L 4140.2098 3357.53 L 4140.4198 3358.14 L 4140.8298 3358.55 L 4141.2398 3358.75 L 4141.8498 3358.75 L 4142.2598 3358.55 L 4142.6698 3358.14 M 4145.0398 3355.89 L 4144.6298 3356.1 L 4144.2198 3356.5 L 4144.0198 3357.12 L 4144.0198 3357.53 L 4144.2198 3358.14 L 4144.6298 3358.55 L 4145.0398 3358.75 L 4145.6498 3358.75 L 4146.0598 3358.55 L 4146.4698 3358.14 L 4146.6798 3357.53 L 4146.6798 3357.12 L 4146.4698 3356.5 L 4146.0598 3356.1 L 4145.6498 3355.89 L 4145.0398 3355.89 M 4148.0298 3354.46 L 4148.0298 3358.75 M 4148.0298 3354.46 L 4149.8698 3354.46 L 4150.4798 3354.66 L 4150.6898 3354.87 L 4150.8898 3355.28 L 4150.8898 3355.89 L 4150.6898 3356.3 L 4150.4798 3356.5 L 4149.8698 3356.71 L 4148.0298 3356.71 M 4152.2398 3354.46 L 4152.4498 3354.66 L 4152.6498 3354.46 L 4152.4498 3354.25 L 4152.2398 3354.46 M 4152.4498 3355.89 L 4152.4498 3358.75 M 4153.9998 3355.89 L 4156.2498 3358.75 M 4156.2498 3355.89 L 4153.9998 3358.75 M 4157.5998 3357.12 L 4160.0498 3357.12 L 4160.0498 3356.71 L 4159.8498 3356.3 L 4159.6498 3356.1 L 4159.2398 3355.89 L 4158.6198 3355.89 L 4158.2098 3356.1 L 4157.7998 3356.5 L 4157.5998 3357.12 L 4157.5998 3357.53 L 4157.7998 3358.14 L 4158.2098 3358.55 L 4158.6198 3358.75 L 4159.2398 3358.75 L 4159.6498 3358.55 L 4160.0498 3358.14 M 4161.3998 3354.46 L 4161.3998 3358.75 M 4165.8998 3354.46 L 4165.8998 3358.75 M 4165.8998 3354.46 L 4167.7498 3354.46 L 4168.3598 3354.66 L 4168.5598 3354.87 L 4168.7698 3355.28 L 4168.7698 3355.69 L 4168.5598 3356.1 L 4168.3598 3356.3 L 4167.7498 3356.5 L 4165.8998 3356.5 M 4167.3398 3356.5 L 4168.7698 3358.75 M 4170.1198 3354.46 L 4170.3198 3354.66 L 4170.5298 3354.46 L 4170.3198 3354.25 L 4170.1198 3354.46 M 4170.3198 3355.89 L 4170.3198 3358.75 M 4171.8798 3355.89 L 4171.8798 3358.75 M 4171.8798 3356.71 L 4172.4898 3356.1 L 4172.8998 3355.89 L 4173.5098 3355.89 L 4173.9198 3356.1 L 4174.1298 3356.71 L 4174.1298 3358.75 M 4177.9298 3355.89 L 4177.9298 3359.16 L 4177.7298 3359.78 L 4177.5198 3359.98 L 4177.1098 3360.19 L 4176.4998 3360.19 L 4176.0898 3359.98 M 4177.9298 3356.5 L 4177.5198 3356.1 L 4177.1098 3355.89 L 4176.4998 3355.89 L 4176.0898 3356.1 L 4175.6798 3356.5 L 4175.4798 3357.12 L 4175.4798 3357.53 L 4175.6798 3358.14 L 4176.0898 3358.55 L 4176.4998 3358.75 L 4177.1098 3358.75 L 4177.5198 3358.55 L 4177.9298 3358.14 M 4182.4298 3355.28 L 4182.8398 3355.07 L 4183.4498 3354.46 L 4183.4498 3358.75 M 4185.0098 3355.48 L 4185.0098 3355.28 L 4185.2098 3354.87 L 4185.4198 3354.66 L 4185.8298 3354.46 L 4186.6498 3354.46 L 4187.0498 3354.66 L 4187.2598 3354.87 L 4187.4598 3355.28 L 4187.4598 3355.69 L 4187.2598 3356.1 L 4186.8498 3356.71 L 4184.7998 3358.75 L 4187.6698 3358.75" fill="none" stroke-width="0.6" c_note="note_name" style=""/></g><g c_partid="part_pcbtext" c_etype="" c_origin="4135.9998,3366" c_rotation="0" c_mirror="" id="gge37_3" locked="0" layerid="3" c_shapetype="group"><path c_fontsize="4.5" c_fontfamily="" c_text="P1" d="M 4135.9998 3361.46 L 4135.9998 3365.75 M 4135.9998 3361.46 L 4137.8398 3361.46 L 4138.4498 3361.66 L 4138.6598 3361.87 L 4138.8598 3362.28 L 4138.8598 3362.89 L 4138.6598 3363.3 L 4138.4498 3363.5 L 4137.8398 3363.71 L 4135.9998 3363.71 M 4140.2098 3362.28 L 4140.6198 3362.07 L 4141.2398 3361.46 L 4141.2398 3365.75" fill="none" stroke-width="0.6" c_note="note_pre" style=""/></g><g c_partid="part_pcbtext" c_etype="" c_origin="4152.9998,3379" c_rotation="105" c_mirror="0" id="gge44_3" locked="0" layerid="3" c_shapetype="group"><path c_fontsize="2.7999924" c_fontfamily="" c_text="IN" d="M 4154.4798 3379.4 L 4151.8898 3378.7 M 4154.2598 3380.21 L 4151.6698 3379.51 M 4154.2598 3380.21 L 4151.2098 3381.23 M 4153.7998 3381.93 L 4151.2098 3381.23" fill="none" stroke-width="0.6"/></g><g c_partid="part_pcbtext" c_etype="" c_origin="4285,3469" c_rotation="0" c_mirror="" id="gge52_3" locked="0" layerid="3" c_shapetype="group" display="none"><path c_fontsize="4.5" c_fontfamily="" c_text="10KOHM" d="M 4285 3465.28 L 4285.41 3465.07 L 4286.02 3464.46 L 4286.02 3468.75 M 4288.6 3464.46 L 4287.99 3464.66 L 4287.58 3465.28 L 4287.37 3466.3 L 4287.37 3466.91 L 4287.58 3467.94 L 4287.99 3468.55 L 4288.6 3468.75 L 4289.01 3468.75 L 4289.62 3468.55 L 4290.03 3467.94 L 4290.24 3466.91 L 4290.24 3466.3 L 4290.03 3465.28 L 4289.62 3464.66 L 4289.01 3464.46 L 4288.6 3464.46 M 4291.59 3464.46 L 4291.59 3468.75 M 4294.45 3464.46 L 4291.59 3467.32 M 4292.61 3466.3 L 4294.45 3468.75 M 4297.03 3464.46 L 4296.62 3464.66 L 4296.21 3465.07 L 4296 3465.48 L 4295.8 3466.1 L 4295.8 3467.12 L 4296 3467.73 L 4296.21 3468.14 L 4296.62 3468.55 L 4297.03 3468.75 L 4297.85 3468.75 L 4298.25 3468.55 L 4298.66 3468.14 L 4298.87 3467.73 L 4299.07 3467.12 L 4299.07 3466.1 L 4298.87 3465.48 L 4298.66 3465.07 L 4298.25 3464.66 L 4297.85 3464.46 L 4297.03 3464.46 M 4300.42 3464.46 L 4300.42 3468.75 M 4303.29 3464.46 L 4303.29 3468.75 M 4300.42 3466.5 L 4303.29 3466.5 M 4304.64 3464.46 L 4304.64 3468.75 M 4304.64 3464.46 L 4306.27 3468.75 M 4307.91 3464.46 L 4306.27 3468.75 M 4307.91 3464.46 L 4307.91 3468.75" fill="none" stroke-width="0.6" c_note="note_name" style=""/></g><g c_partid="part_pcbtext" c_etype="" c_origin="4285,3476" c_rotation="0" c_mirror="" id="gge54_3" locked="0" layerid="3" c_shapetype="group"><path c_fontsize="4.5" c_fontfamily="" c_text="R1" d="M 4285 3471.46 L 4285 3475.75 M 4285 3471.46 L 4286.84 3471.46 L 4287.45 3471.66 L 4287.66 3471.87 L 4287.86 3472.28 L 4287.86 3472.69 L 4287.66 3473.1 L 4287.45 3473.3 L 4286.84 3473.5 L 4285 3473.5 M 4286.43 3473.5 L 4287.86 3475.75 M 4289.21 3472.28 L 4289.62 3472.07 L 4290.24 3471.46 L 4290.24 3475.75" fill="none" stroke-width="0.6" c_note="note_pre" style=""/></g><g c_partid="part_pcbtext" c_etype="" c_origin="4263.25,3359" c_rotation="0" c_mirror="" id="gge68_3" locked="0" layerid="3" c_shapetype="group" display="none"><path c_fontsize="4.5" c_fontfamily="" c_text="CR2032 BATTERY HOLDER (THT)" d="M 4266.32 3355.48 L 4266.11 3355.07 L 4265.7 3354.66 L 4265.3 3354.46 L 4264.48 3354.46 L 4264.07 3354.66 L 4263.66 3355.07 L 4263.45 3355.48 L 4263.25 3356.1 L 4263.25 3357.12 L 4263.45 3357.73 L 4263.66 3358.14 L 4264.07 3358.55 L 4264.48 3358.75 L 4265.3 3358.75 L 4265.7 3358.55 L 4266.11 3358.14 L 4266.32 3357.73 M 4267.67 3354.46 L 4267.67 3358.75 M 4267.67 3354.46 L 4269.51 3354.46 L 4270.12 3354.66 L 4270.33 3354.87 L 4270.53 3355.28 L 4270.53 3355.69 L 4270.33 3356.1 L 4270.12 3356.3 L 4269.51 3356.5 L 4267.67 3356.5 M 4269.1 3356.5 L 4270.53 3358.75 M 4272.09 3355.48 L 4272.09 3355.28 L 4272.29 3354.87 L 4272.5 3354.66 L 4272.9 3354.46 L 4273.72 3354.46 L 4274.13 3354.66 L 4274.34 3354.87 L 4274.54 3355.28 L 4274.54 3355.69 L 4274.34 3356.1 L 4273.93 3356.71 L 4271.88 3358.75 L 4274.75 3358.75 M 4277.32 3354.46 L 4276.71 3354.66 L 4276.3 3355.28 L 4276.1 3356.3 L 4276.1 3356.91 L 4276.3 3357.94 L 4276.71 3358.55 L 4277.32 3358.75 L 4277.73 3358.75 L 4278.35 3358.55 L 4278.75 3357.94 L 4278.96 3356.91 L 4278.96 3356.3 L 4278.75 3355.28 L 4278.35 3354.66 L 4277.73 3354.46 L 4277.32 3354.46 M 4280.72 3354.46 L 4282.97 3354.46 L 4281.74 3356.1 L 4282.35 3356.1 L 4282.76 3356.3 L 4282.97 3356.5 L 4283.17 3357.12 L 4283.17 3357.53 L 4282.97 3358.14 L 4282.56 3358.55 L 4281.95 3358.75 L 4281.33 3358.75 L 4280.72 3358.55 L 4280.51 3358.35 L 4280.31 3357.94 M 4284.73 3355.48 L 4284.73 3355.28 L 4284.93 3354.87 L 4285.14 3354.66 L 4285.55 3354.46 L 4286.36 3354.46 L 4286.77 3354.66 L 4286.98 3354.87 L 4287.18 3355.28 L 4287.18 3355.69 L 4286.98 3356.1 L 4286.57 3356.71 L 4284.52 3358.75 L 4287.39 3358.75 M 4291.89 3354.46 L 4291.89 3358.75 M 4291.89 3354.46 L 4293.73 3354.46 L 4294.34 3354.66 L 4294.55 3354.87 L 4294.75 3355.28 L 4294.75 3355.69 L 4294.55 3356.1 L 4294.34 3356.3 L 4293.73 3356.5 M 4291.89 3356.5 L 4293.73 3356.5 L 4294.34 3356.71 L 4294.55 3356.91 L 4294.75 3357.32 L 4294.75 3357.94 L 4294.55 3358.35 L 4294.34 3358.55 L 4293.73 3358.75 L 4291.89 3358.75 M 4297.74 3354.46 L 4296.1 3358.75 M 4297.74 3354.46 L 4299.37 3358.75 M 4296.71 3357.32 L 4298.76 3357.32 M 4302.15 3354.46 L 4302.15 3358.75 M 4300.72 3354.46 L 4303.59 3354.46 M 4306.37 3354.46 L 4306.37 3358.75 M 4304.94 3354.46 L 4307.8 3354.46 M 4309.15 3354.46 L 4309.15 3358.75 M 4309.15 3354.46 L 4311.81 3354.46 M 4309.15 3356.5 L 4310.79 3356.5 M 4309.15 3358.75 L 4311.81 3358.75 M 4313.16 3354.46 L 4313.16 3358.75 M 4313.16 3354.46 L 4315 3354.46 L 4315.61 3354.66 L 4315.82 3354.87 L 4316.02 3355.28 L 4316.02 3355.69 L 4315.82 3356.1 L 4315.61 3356.3 L 4315 3356.5 L 4313.16 3356.5 M 4314.59 3356.5 L 4316.02 3358.75 M 4317.37 3354.46 L 4319.01 3356.5 L 4319.01 3358.75 M 4320.65 3354.46 L 4319.01 3356.5 M 4325.15 3354.46 L 4325.15 3358.75 M 4328.01 3354.46 L 4328.01 3358.75 M 4325.15 3356.5 L 4328.01 3356.5 M 4330.59 3354.46 L 4330.18 3354.66 L 4329.77 3355.07 L 4329.56 3355.48 L 4329.36 3356.1 L 4329.36 3357.12 L 4329.56 3357.73 L 4329.77 3358.14 L 4330.18 3358.55 L 4330.59 3358.75 L 4331.4 3358.75 L 4331.81 3358.55 L 4332.22 3358.14 L 4332.43 3357.73 L 4332.63 3357.12 L 4332.63 3356.1 L 4332.43 3355.48 L 4332.22 3355.07 L 4331.81 3354.66 L 4331.4 3354.46 L 4330.59 3354.46 M 4333.98 3354.46 L 4333.98 3358.75 M 4333.98 3358.75 L 4336.44 3358.75 M 4337.79 3354.46 L 4337.79 3358.75 M 4337.79 3354.46 L 4339.22 3354.46 L 4339.83 3354.66 L 4340.24 3355.07 L 4340.45 3355.48 L 4340.65 3356.1 L 4340.65 3357.12 L 4340.45 3357.73 L 4340.24 3358.14 L 4339.83 3358.55 L 4339.22 3358.75 L 4337.79 3358.75 M 4342 3354.46 L 4342 3358.75 M 4342 3354.46 L 4344.66 3354.46 M 4342 3356.5 L 4343.64 3356.5 M 4342 3358.75 L 4344.66 3358.75 M 4346.01 3354.46 L 4346.01 3358.75 M 4346.01 3354.46 L 4347.85 3354.46 L 4348.46 3354.66 L 4348.67 3354.87 L 4348.87 3355.28 L 4348.87 3355.69 L 4348.67 3356.1 L 4348.46 3356.3 L 4347.85 3356.5 L 4346.01 3356.5 M 4347.44 3356.5 L 4348.87 3358.75 M 4354.8 3353.64 L 4354.4 3354.05 L 4353.99 3354.66 L 4353.58 3355.48 L 4353.37 3356.5 L 4353.37 3357.32 L 4353.58 3358.35 L 4353.99 3359.16 L 4354.4 3359.78 L 4354.8 3360.19 M 4357.59 3354.46 L 4357.59 3358.75 M 4356.15 3354.46 L 4359.02 3354.46 M 4360.37 3354.46 L 4360.37 3358.75 M 4363.23 3354.46 L 4363.23 3358.75 M 4360.37 3356.5 L 4363.23 3356.5 M 4366.01 3354.46 L 4366.01 3358.75 M 4364.58 3354.46 L 4367.45 3354.46 M 4368.8 3353.64 L 4369.2 3354.05 L 4369.61 3354.66 L 4370.02 3355.48 L 4370.23 3356.5 L 4370.23 3357.32 L 4370.02 3358.35 L 4369.61 3359.16 L 4369.2 3359.78 L 4368.8 3360.19" fill="none" stroke-width="0.6" c_note="note_name" style=""/></g><g c_partid="part_pcbtext" c_etype="" c_origin="4263.25,3366" c_rotation="0" c_mirror="" id="gge70_3" locked="0" layerid="3" c_shapetype="group"><path c_fontsize="4.5" c_fontfamily="" c_text="B1" d="M 4263.25 3361.46 L 4263.25 3365.75 M 4263.25 3361.46 L 4265.09 3361.46 L 4265.7 3361.66 L 4265.91 3361.87 L 4266.11 3362.28 L 4266.11 3362.69 L 4265.91 3363.1 L 4265.7 3363.3 L 4265.09 3363.5 M 4263.25 3363.5 L 4265.09 3363.5 L 4265.7 3363.71 L 4265.91 3363.91 L 4266.11 3364.32 L 4266.11 3364.94 L 4265.91 3365.35 L 4265.7 3365.55 L 4265.09 3365.75 L 4263.25 3365.75 M 4267.46 3362.28 L 4267.87 3362.07 L 4268.49 3361.46 L 4268.49 3365.75" fill="none" stroke-width="0.6" c_note="note_pre" style=""/></g><path d="M 4263.2 3487.6 A 6.999986 6.999986 0 0 1 4256.2 3494.6" locked="0" c_shapetype="line" fill="none" stroke-width="1" c_helper_type="arc2" net="" layerid="3" id="gge8_3"/><path d="M 4251 3494.6 A 6.999986 6.999986 0 0 1 4244 3487.6" locked="0" c_shapetype="line" fill="none" stroke-width="1" c_helper_type="arc2" net="" layerid="3" id="gge10_3"/><path d="M 4244 3484.4 A 6.999986 6.999986 0 0 1 4251 3477.4" locked="0" c_shapetype="line" fill="none" stroke-width="1" c_helper_type="arc2" net="" layerid="3" id="gge12_3"/><path d="M 4256.2 3477.4 A 6.999986 6.999986 0 0 1 4263.2 3484.4" locked="0" c_shapetype="line" fill="none" stroke-width="1" c_helper_type="arc2" net="" layerid="3" id="gge14_3"/><path d="M 4221 3477 A 3 3 0 1 0 4227 3477" locked="0" c_shapetype="line" fill="none" stroke-width="1" c_helper_type="arc2" net="" layerid="3" id="gge24_3"/><path d="M 4063.9999 3439.5 A 72.499855 72.499855 0 0 0 4136.4998 3511.9999" locked="0" c_shapetype="line" fill="none" stroke-width="0.6" c_helper_type="arc2" net="" layerid="3" id="gge39_3"/><path d="M 4136.4998 3511.9999 A 72.499855 72.499855 0 0 0 4208.9997 3439.5" locked="0" c_shapetype="line" fill="none" stroke-width="0.6" c_helper_type="arc2" net="" layerid="3" id="gge40_3"/><path d="M 4208.9997 3439.5 A 72.499855 72.499855 0 0 0 4136.4998 3367.0001" locked="0" c_shapetype="line" fill="none" stroke-width="0.6" c_helper_type="arc2" net="" layerid="3" id="gge41_3"/><path d="M 4136.4998 3367.0001 A 72.499855 72.499855 0 0 0 4063.9999 3439.5" locked="0" c_shapetype="line" fill="none" stroke-width="0.6" c_helper_type="arc2" net="" layerid="3" id="gge42_3"/><path d="M 4313.5 3409.75 A 43.25072 43.25072 0 1 0 4313.49 3410.52" locked="0" c_shapetype="line" fill="none" stroke-width="1" c_helper_type="arc2" net="" layerid="3" id="gge72_3"/><circle cx="4135.9998" cy="3440" r="50" stroke-width="1" fill="none" layerid="3" id="gge43_3" locked="0" c_shapetype="line"/></g><path d="M4048 3528,4048 3350,4329 3350,4329 3528z" stroke="none" id="bottomBoardSolderReal" mask="url(#bottomBoardSolderMask)" fill="#002966" display="none"/></g></g></svg>